**ABCDEFGHIJKLMNOPQRSTUVWXYZabcdefghijklmnopqrstuvwxyz**************************
**PARASOLID !"#$%&'()*+,-./:;<=>?@[\]^_`{|}~0123456789**************************
**PART1;
MC=x64/Windows NT;
MC_MODEL=genuineintel family 6 model 10 stepping 5, intel(r) xeon(r) cpu           w3550  @ 3.07ghz;
MC_ID=133-7320;
OS=windows nt (x64);
OS_RELEASE=6.1 windows 7 ultimate (build 7601) service pack 1;
FRU=mdc_ugii_v7.0_djl_can_vrh;
APPL=unigraphics;
SITE=unknown;
USER=Afonin;
FORMAT=text;
GUISE=transmit;
KEY=model1;
FILE=D:\MyFilesCur\MyPrgs\Ansys\Geom\model1.x_t;
DATE=13-sep-2023;
**PART2;
SCH=SCH_2900123_28101;
USFLD_SIZE=0;
**PART3;
**END_OF_HEADER*****************************************************************
T51 : TRANSMIT FILE created by modeller version 290012323 SCH_2900123_28101_1300
6203 0 10 19 CCCCCCCI4 mesh1006 0 I8 polyline1008 0 CCCCCCCCCCZ1 3 0 0 0 0 0 0 0
 0 0 1e3 1e-8 0 0 0 1 0 1 2 11 255 2 3 0 1 3 0 1 4 0 0 0 12 33 CCCCCCI4 mesh1006
 0 I8 polyline1008 0 CCCCCCCDI5 owner1040 0 CCCCCCI13 boundary_mesh1006 0 I17 bo
undary_polyline1008 0 CCCA16 index_map_offset0 0 1 dA9 index_map82 0 A17 node_id
_index_map82 0 A20 schema_embedding_map82 0 A5 child12 0 A14 lowest_node_id0 0 1
 dZ3 54 5 6 0 0 0 0 0 0 1e3 1e-8 2 7 0 1 0 3 1 8 9 10 11 0 0 12 13 14 0 0 0 0 0
 0 11 4 2 0 1 7 0 1 15 2 0 0 12 7 91 16 17 0 0 0 0 0 0 1e3 1e-8 4 18 3 1 0 3 1 1
9 20 21 22 0 0 23 24 25 0 0 0 0 0 0 11 15 1 0 1 18 0 1 0 4 0 0 12 18 91 26 27 0
 0 0 0 0 0 1e3 1e-8 15 0 7 1 0 3 1 28 29 30 31 0 0 32 33 34 0 0 0 0 0 0 81 255 1
 26 91 35 18 36 0 0 0 37 70 11 CI9 list_type0 0 1 uI10 notransmit0 0 1 lCCCDCCDI
12 finger_index0 0 1 dI12 finger_block1012 0 CZ27 0 4 T18 0 0 5 20 1 38 38 13 25
5 28 3 0 18 0 39 0 0 32 39 50 255 29 63 0 39 0 0 0 +-21316282072803e-30 -2131628
2072803e-30 0 0 0 1 -406024420434343e-30 1 0 30 255 30 62 0 40 41 0 0 -.35 .3 0
 647630097698008e-30 -1 0 29 255 31 54 0 42 43 0 .35 .3 0 19 8 CCCCCCCA5 owner12
 0 Z32 1 0 18 0 0 28 V0 16 255 33 37 44 ?45 0 46 47 0 0 18 18 255 34 33 0 48 0 4
9 50 ?18 17 255 48 0 0 0 0 34 51 46 0 45 -18 49 29 0 52 34 53 54 ?18 29 50 47 0
 34 0 54 -.15 .1 0 29 54 48 0 49 50 55 .15 .1 0 29 55 49 0 56 54 57 .15 -.1 0 18
 56 22 0 58 53 42 55 ?18 29 57 50 0 53 55 59 -.15 -.1 0 18 53 25 0 60 49 56 57 ?
18 29 59 51 0 61 57 62 -.35 .3 0 18 61 5 0 63 64 65 59 ?18 29 62 52 0 65 59 43 -
.35 -.3 0 18 65 2 0 66 61 0 62 ?18 29 43 53 0 64 62 31 .35 -.3 0 18 64 9 0 67 42
 61 43 ?18 17 67 0 0 0 0 64 68 40 0 69 -18 42 13 0 68 56 64 31 ?18 17 68 0 70 71
 69 42 67 40 0 72 +15 255 70 19 0 71 39 0 17 71 0 70 73 68 61 72 74 0 0 +17 69 0
 70 68 73 64 66 75 0 0 +16 40 14 76 ?68 75 74 30 0 0 18 17 72 0 0 0 0 42 71 74 0
 0 -16 74 17 77 ?71 40 0 78 0 0 18 81 1 77 87 79 74 0 0 76 80 81 30 78 59 0 74 8
2 83 0 --.35 .3 0 1 793016446160826e-31 0 30 82 58 0 84 85 78 0 +.15 -.1 0 -1 0
 0 30 83 60 0 86 78 41 0 --.35 -.3 0 -925185853854297e-31 1 0 16 86 6 87 ?73 84
 75 83 0 0 18 30 41 61 0 75 83 30 0 -.35 -.3 0 -1 -396508223080413e-30 0 16 75 1
0 88 ?69 86 40 41 0 0 18 81 1 88 85 79 75 0 0 87 76 89 80 255 1 79 90 91 9000 1
 1 1 1 1 1 1 1 0 FFFFTFTFFFFFFF3 81 1 87 84 79 86 0 0 92 88 93 81 1 76 86 79 40
 0 0 88 77 94 84 255 32 89 44875af17feb0da9eec19654ff5cb49f84 32 94 a3b658b6cc3f
af8a2fe406d2794db52481 1 92 83 79 84 0 0 95 87 96 84 32 93 2c5529596877e7d04a491
08d3c2333ef16 84 26 92 ?60 97 86 82 0 0 18 81 1 95 82 79 97 0 0 98 92 99 84 32 9
6 490ca14aa72d9f103ce47afd44b4072a16 97 30 95 ?100 46 84 85 0 0 18 81 1 98 81 79
 46 0 0 44 95 101 84 32 99 757ec46723ac7f649d85575eda3093af16 46 34 98 ?51 33 97
 102 0 0 18 81 1 44 80 79 33 0 0 0 98 103 84 32 101 6a9f661b824998b0f73651809652
6bda84 32 103 5102c10c8ea8167e011fc50fa097b2db17 51 0 104 100 45 49 48 46 0 0 +3
0 102 56 0 46 47 85 0 +-.15 .1 0 1 1387778780781446e-31 0 30 47 55 0 33 0 102 0
 +-.15 -.1 0 0 1 0 30 85 57 0 97 102 82 0 +.15 .1 0 1387778780781444e-31 -1 0 15
 104 38 0 45 39 70 17 100 0 104 60 51 56 52 97 0 0 +17 45 0 104 51 60 34 105 33
 0 0 +17 60 0 104 45 100 53 58 84 0 105 +17 105 0 0 0 0 53 45 33 0 0 -17 58 0 0
 0 0 56 60 84 0 100 -17 52 0 0 0 0 49 100 97 0 51 -14 255 39 20 106 ?0 0 104 28
 29 +0 0 0 0 28 81 1 106 90 107 39 80 0 0 0 108 80 1 107 0 109 8001 0 0 0 0 3 5
 0 0 0 FFFFTFTFFFFFFF2 81 1 80 88 79 39 0 106 77 0 110 83 255 3 108 .5019608 .63
52941 .7058824 84 32 110 3a84076cc277f128b2a6f2f40c8f81bf79 255 15 109 SDL/TYSA_
COLOUR79 15 91 UGS/ObjectState17 73 0 70 69 71 65 63 86 0 0 +17 63 0 0 0 0 61 73
 86 0 71 -84 32 81 8accf34bb1671647398b722cf451d78c17 66 0 0 0 0 65 69 75 0 73 -
74 4 CI16 index_map_offset0 0 1 dCCZ20 38 5 0 0 111 80 36 106 26 0 0 0 0 0 0 0 0
 0 0 0 0 0 0 0 81 2 111 79 112 18 0 36 0 0 113 114 81 1 36 89 115 18 111 26 0 0
 116 80 1 115 117 118 9000 0 0 0 0 3 5 0 0 0 FFTFFFFFFFFFFF1 82 255 1 116 11 79
 7 118 body_id80 2 112 119 120 8004 0 0 0 0 3 5 0 0 0 FFTFFFFFFFFFFF2 3 83 1 113
 7830.64 84 8 114 Kg/Cu M 79 16 120 SDL/TYSA_DENSITY80 1 35 121 122 9000 0 0 0 0
 3 5 0 0 0 FFTFFFFFFFFFFF1 82 1 37 171 79 24 122 UG2/BODY_COLOR_ATTRIBUTE81 1 16
 91 35 7 123 0 0 0 124 70 17 0 4 T7 0 0 5 20 1 125 125 13 19 3 0 7 0 126 0 0 23
 126 50 20 63 0 126 0 0 0 +-106581410364015e-31 177635683940025e-31 0 0 0 1 1 14
210854715202e-29 0 30 21 62 0 127 128 0 0 -.15 -.1 0 -1 0 0 29 22 54 0 129 130 0
 .15 -.1 0 19 23 1 0 7 0 0 19 V0 16 24 37 131 ?132 0 133 134 0 0 7 18 25 33 0 13
5 0 136 137 ?7 17 135 0 0 0 0 25 138 133 0 132 -18 136 29 0 139 25 140 141 ?7 29
 137 47 0 25 0 141 -.05 -.05 0 29 141 48 0 136 137 142 -.05 1404432126150822e-32
 0 29 142 49 0 143 141 144 .05 28421709430404e-30 0 18 143 22 0 145 140 129 142
 ?7 29 144 50 0 140 142 146 .05 -.05 0 18 140 25 0 147 136 143 144 ?7 29 146 51
 0 148 144 149 .15 .1 0 18 148 5 0 150 151 152 146 ?7 29 149 52 0 152 146 130 -.
15 .1 0 18 152 2 0 153 148 0 149 ?7 29 130 53 0 151 149 22 -.15 -.1 0 18 151 9 0
 154 129 148 130 ?7 17 154 0 0 0 0 151 155 127 0 156 -18 129 13 0 155 143 151 22
 ?7 17 155 0 157 158 156 129 154 127 0 159 +15 157 19 0 158 126 0 17 158 0 157 1
60 155 148 159 161 0 0 +17 156 0 157 155 160 151 153 162 0 0 +16 127 14 163 ?155
 162 161 21 0 0 7 17 159 0 0 0 0 129 158 161 0 0 -16 161 17 164 ?158 127 0 165 0
 0 7 81 1 164 87 79 161 0 0 163 166 167 30 165 59 0 161 168 169 0 -.15 .1 0 1387
778780781444e-31 -1 0 30 168 58 0 170 171 165 0 +.05 28421709430404e-30 0 277555
756156289e-30 -1 0 30 169 60 0 172 165 128 0 --.15 .1 0 1 1387778780781446e-31 0
 16 172 6 173 ?160 170 162 169 0 0 7 30 128 61 0 162 169 21 0 --.15 -.1 0 0 1 0
 16 162 10 174 ?156 172 127 128 0 0 7 81 1 174 85 79 162 0 0 173 163 175 81 1 17
3 84 79 172 0 0 176 174 177 81 1 163 86 79 127 0 0 174 164 178 84 32 175 7a8f8d8
4f30706c150dea4e3dda374da84 32 178 c7c87d623480cd473bcdcda434d4da3c81 1 176 83 7
9 170 0 0 179 173 180 84 32 177 dd389f6f78de5bd922dee4fc9b8116f516 170 26 176 ?1
47 181 172 168 0 0 7 81 1 179 82 79 181 0 0 182 176 183 84 32 180 4d97f8cb06bc17
dc2d736f8fc891b43d16 181 30 179 ?184 133 170 171 0 0 7 81 1 182 81 79 133 0 0 13
1 179 185 84 32 183 ee7f7c2aba862860454e8685ff91869316 133 34 182 ?138 24 181 18
6 0 0 7 81 1 131 80 79 24 0 0 0 182 187 84 32 185 9d215f54b21990713f550f8d9052c1
8684 32 187 5f433f6c1c5f11f6a917aaa682006f3417 138 0 188 184 132 136 135 133 0 0
 +30 186 56 0 133 134 171 0 +-.05 -.05 0 -1387778780781446e-31 1 0 30 134 55 0 2
4 0 186 0 +.05 -.05 0 -1 -277555756156289e-30 0 30 171 57 0 181 186 168 0 +-.05
 14210854715202e-30 0 1 14210854715202e-29 0 15 188 38 0 132 126 157 17 184 0 18
8 147 138 143 139 181 0 0 +17 132 0 188 138 147 25 189 24 0 0 +17 147 0 188 132
 184 140 145 170 0 189 +17 189 0 0 0 0 140 132 24 0 0 -17 145 0 0 0 0 143 147 17
0 0 184 -17 139 0 0 0 0 136 184 181 0 138 -14 126 20 190 ?0 0 188 19 20 +0 0 0 0
 19 81 1 190 90 107 126 166 0 0 0 191 81 1 166 88 79 126 0 190 164 0 192 83 3 19
1 .5019608 .6352941 .7058824 84 32 192 90e820832f3c74751196fd0b9633371617 160 0
 157 156 158 152 150 172 0 0 +17 150 0 0 0 0 148 160 172 0 158 -84 32 167 282950
121a471b26141dc731001138b917 153 0 0 0 0 152 156 162 0 160 -74 20 125 5 0 0 193
 166 123 190 16 0 0 0 0 0 0 0 0 0 0 0 0 0 0 0 81 2 193 79 112 7 0 123 0 0 194 19
5 81 1 123 89 115 7 193 16 0 0 196 82 1 196 10 83 1 194 7830.64 84 8 195 Kg/Cu M
 82 1 124 171 81 1 5 54 35 3 197 0 0 0 198 70 6 0 4 T3 0 0 5 20 1 199 199 13 8 3
 0 3 0 200 0 0 12 200 50 9 34 0 200 0 0 0 +-.01 -.022 0 0 0 -1 14210854715202e-2
9 -1 0 30 10 33 0 201 202 0 0 +-.05 14210854715202e-30 0 1 14210854715202e-29 0
 29 11 29 0 203 204 0 -.05 1404432126150822e-32 0 19 12 1 0 3 0 0 8 V0 16 13 14
 205 ?206 0 207 208 0 0 3 18 14 13 0 206 0 209 210 ?3 17 206 0 211 212 213 14 21
4 13 0 215 +18 209 9 0 213 14 216 217 ?3 29 210 26 0 14 0 217 -.05 -.05 0 29 217
 27 0 209 210 204 .05 -.05 0 29 204 28 0 216 217 11 .05 28421709430404e-30 0 18
 216 5 0 218 209 203 204 ?3 17 218 0 211 213 212 216 219 201 0 220 +18 203 2 0 2
19 216 0 11 ?3 17 219 0 0 0 0 203 218 201 0 212 -16 201 6 221 ?218 207 222 10 0
 0 3 17 212 0 211 218 206 203 215 222 0 0 +15 211 19 0 212 200 0 17 215 0 0 0 0
 14 212 222 0 0 -16 222 17 223 ?212 201 0 224 0 0 3 81 1 223 50 79 222 0 0 221 2
25 226 30 224 30 0 222 0 208 0 +-.05 -.05 0 -1387778780781446e-31 1 0 30 208 31
 0 13 224 202 0 +.05 -.05 0 -1 -277555756156289e-30 0 30 202 32 0 207 208 10 0 +
.05 28421709430404e-30 0 277555756156289e-30 -1 0 16 207 10 227 ?213 13 201 202
 0 0 3 81 1 227 48 79 207 0 0 205 221 228 17 213 0 211 206 218 209 220 207 0 214
 +17 220 0 0 0 0 216 213 207 0 0 -17 214 0 0 0 0 209 206 13 0 0 -81 1 205 47 79
 13 0 0 0 227 229 81 1 221 49 79 201 0 0 227 223 230 84 32 228 4d97f8cb06bc17dc2
d736f8fc891b43d84 32 230 ee7f7c2aba862860454e8685ff91869384 32 229 5f433f6c1c5f1
1f6a917aaa682006f3481 1 225 51 79 200 0 231 223 0 232 84 32 226 9d215f54b2199071
3f550f8d9052c18614 200 20 231 ?0 0 211 8 9 +0 0 0 0 8 81 1 231 53 107 200 225 0
 0 0 233 84 32 232 daf6073482330815d3834d6ea781c05283 3 233 .5019608 .6352941 .7
058824 74 20 199 5 0 0 234 225 197 231 5 0 0 0 0 0 0 0 0 0 0 0 0 0 0 0 81 2 234
 46 112 3 0 197 0 0 235 236 81 1 197 52 115 3 234 5 0 0 237 82 1 237 9 83 1 235
 7830.64 84 8 236 Kg/Cu M 82 1 198 171 1 0 
