**ABCDEFGHIJKLMNOPQRSTUVWXYZabcdefghijklmnopqrstuvwxyz**************************
**PARASOLID !"#$%&'()*+,-./:;<=>?@[\]^_`{|}~0123456789**************************
**PART1;
MC=x64/Windows NT;
MC_MODEL=genuineintel family 6 model 10 stepping 5, intel(r) xeon(r) cpu           w3550  @ 3.07ghz;
MC_ID=133-7320;
OS=windows nt (x64);
OS_RELEASE=6.1 windows 7 ultimate (build 7601) service pack 1;
FRU=mdc_ugii_v7.0_djl_can_vrh;
APPL=unigraphics;
SITE=unknown;
USER=Afonin;
FORMAT=text;
GUISE=transmit;
KEY=model1_1;
FILE=D:\MyFilesCur\MyPrgs\Ansys\Geom\model1_1.x_t;
DATE=19-sep-2023;
**PART2;
SCH=SCH_2900123_28101;
USFLD_SIZE=0;
**PART3;
**END_OF_HEADER*****************************************************************
T51 : TRANSMIT FILE created by modeller version 290012323 SCH_2900123_28101_1300
6203 0 10 19 CCCCCCCI4 mesh1006 0 I8 polyline1008 0 CCCCCCCCCCZ1 3 0 0 0 0 0 0 0
 0 0 1e3 1e-8 0 0 0 1 0 1 2 11 255 2 3 0 1 3 0 1 4 0 0 0 12 33 CCCCCCI4 mesh1006
 0 I8 polyline1008 0 CCCCCCCDI5 owner1040 0 CCCCCCI13 boundary_mesh1006 0 I17 bo
undary_polyline1008 0 CCCA16 index_map_offset0 0 1 dA9 index_map82 0 A17 node_id
_index_map82 0 A20 schema_embedding_map82 0 A5 child12 0 A14 lowest_node_id0 0 1
 dZ3 92 5 6 0 0 0 0 0 0 1e3 1e-8 2 7 0 1 0 3 1 8 9 10 11 0 0 12 13 14 0 0 0 0 0
 0 11 4 2 0 1 7 0 1 15 2 0 0 12 7 92 16 17 0 0 0 0 0 0 1e3 1e-8 4 18 3 1 0 3 1 1
9 20 21 22 0 0 23 24 25 0 0 0 0 0 0 11 15 1 0 1 18 0 1 0 4 0 0 12 18 55 26 27 0
 0 0 0 0 0 1e3 1e-8 15 0 7 1 0 3 1 28 29 30 31 0 0 32 33 34 0 0 0 0 0 0 81 255 1
 26 55 35 18 36 0 0 0 37 70 11 CI9 list_type0 0 1 uI10 notransmit0 0 1 lCCCDCCDI
12 finger_index0 0 1 dI12 finger_block1012 0 CZ27 0 4 T18 0 0 4 20 1 38 38 13 25
5 28 3 0 18 0 39 0 0 32 39 50 255 29 34 0 39 0 0 0 +-.01 -.022 0 0 0 -1 14210854
715202e-29 -1 0 30 255 30 33 0 40 41 0 0 +-.05 14210854715202e-30 0 1 1421085471
5202e-29 0 29 255 31 29 0 42 43 0 -.05 1404432126150822e-32 0 19 8 CCCCCCCA5 own
er12 0 Z32 1 0 18 0 0 28 V0 16 255 33 14 44 ?45 0 46 47 0 0 18 18 255 34 13 0 45
 0 48 49 ?18 17 255 45 0 50 51 52 34 53 33 0 54 +18 48 9 0 52 34 55 56 ?18 29 49
 26 0 34 0 56 -.05 -.05 0 29 56 27 0 48 49 43 .05 -.05 0 29 43 28 0 55 56 31 .05
 28421709430404e-30 0 18 55 5 0 57 48 42 43 ?18 17 57 0 50 52 51 55 58 40 0 59 +
18 42 2 0 58 55 0 31 ?18 17 58 0 0 0 0 42 57 40 0 51 -16 40 6 60 ?57 46 61 30 0
 0 18 17 51 0 50 57 45 42 54 61 0 0 +15 255 50 19 0 51 39 0 17 54 0 0 0 0 34 51
 61 0 0 -16 61 17 62 ?51 40 0 63 0 0 18 81 1 62 50 64 61 0 0 60 65 66 30 63 30 0
 61 0 47 0 +-.05 -.05 0 -1387778780781446e-31 1 0 30 47 31 0 33 63 41 0 +.05 -.0
5 0 -1 -277555756156289e-30 0 30 41 32 0 46 47 30 0 +.05 28421709430404e-30 0 27
7555756156289e-30 -1 0 16 46 10 67 ?52 33 40 41 0 0 18 81 1 67 48 64 46 0 0 44 6
0 68 17 52 0 50 45 57 48 59 46 0 53 +17 59 0 0 0 0 55 52 46 0 0 -17 53 0 0 0 0 4
8 45 33 0 0 -80 255 1 64 69 70 9000 1 1 1 1 1 1 1 1 0 FFFFTFTFFFFFFF3 81 1 44 47
 64 33 0 0 0 67 71 81 1 60 49 64 40 0 0 67 62 72 84 255 32 68 4d97f8cb06bc17dc2d
736f8fc891b43d84 32 72 ee7f7c2aba862860454e8685ff91869384 32 71 5f433f6c1c5f11f6
a917aaa682006f3479 255 15 70 UGS/ObjectState81 1 65 51 64 39 0 73 62 0 74 84 32
 66 9d215f54b21990713f550f8d9052c18614 255 39 20 73 ?0 0 50 28 29 +0 0 0 0 28 81
 1 73 54 75 39 65 0 0 0 76 84 32 74 daf6073482330815d3834d6ea781c05280 1 75 0 77
 8001 0 0 0 0 3 5 0 0 0 FFFFTFTFFFFFFF2 83 255 3 76 .5019608 .6352941 .7058824 7
9 15 77 SDL/TYSA_COLOUR74 4 CI16 index_map_offset0 0 1 dCCZ20 38 4 0 0 36 65 73
 26 0 0 0 0 0 0 0 0 0 0 0 0 0 0 0 0 81 2 36 46 78 18 0 26 0 0 79 80 80 2 78 81 8
2 8004 0 0 0 0 3 5 0 0 0 FFTFFFFFFFFFFF2 3 83 1 79 7830.64 84 8 80 Kg/Cu M 79 16
 82 SDL/TYSA_DENSITY80 1 35 83 84 9000 0 0 0 0 3 5 0 0 0 FFTFFFFFFFFFFF1 82 255
 1 37 171 79 24 84 UG2/BODY_COLOR_ATTRIBUTE81 1 16 92 35 7 85 0 0 0 86 70 17 0 4
 T7 0 0 4 20 1 87 87 13 19 3 0 7 0 88 0 0 23 88 50 20 63 0 88 0 0 0 +-1065814103
64015e-31 177635683940025e-31 0 0 0 1 1 14210854715202e-29 0 30 21 62 0 89 90 0
 0 -.15 -.1 0 -1 0 0 29 22 54 0 91 92 0 .15 -.1 0 19 23 1 0 7 0 0 19 V0 16 24 37
 93 ?94 0 95 96 0 0 7 18 25 33 0 97 0 98 99 ?7 17 97 0 0 0 0 25 100 95 0 94 -18
 98 29 0 101 25 102 103 ?7 29 99 47 0 25 0 103 -.05 -.05 0 29 103 48 0 98 99 104
 -.05 1404432126150822e-32 0 29 104 49 0 105 103 106 .05 28421709430404e-30 0 18
 105 22 0 107 102 91 104 ?7 29 106 50 0 102 104 108 .05 -.05 0 18 102 25 0 109 9
8 105 106 ?7 29 108 51 0 110 106 111 .15 .1 0 18 110 5 0 112 113 114 108 ?7 29 1
11 52 0 114 108 92 -.15 .1 0 18 114 2 0 115 110 0 111 ?7 29 92 53 0 113 111 22 -
.15 -.1 0 18 113 9 0 116 91 110 92 ?7 17 116 0 0 0 0 113 117 89 0 118 -18 91 13
 0 117 105 113 22 ?7 17 117 0 119 120 118 91 116 89 0 121 +15 119 19 0 120 88 0
 17 120 0 119 122 117 110 121 123 0 0 +17 118 0 119 117 122 113 115 124 0 0 +16
 89 14 125 ?117 124 123 21 0 0 7 17 121 0 0 0 0 91 120 123 0 0 -16 123 17 126 ?1
20 89 0 127 0 0 7 81 1 126 87 64 123 0 0 125 128 129 30 127 59 0 123 130 131 0 -
.15 .1 0 1387778780781444e-31 -1 0 30 130 58 0 132 133 127 0 +.05 28421709430404
e-30 0 277555756156289e-30 -1 0 30 131 60 0 134 127 90 0 --.15 .1 0 1 1387778780
781446e-31 0 16 134 6 135 ?122 132 124 131 0 0 7 30 90 61 0 124 131 21 0 --.15 -
.1 0 0 1 0 16 124 10 136 ?118 134 89 90 0 0 7 81 1 136 85 64 124 0 0 135 125 137
 81 1 135 84 64 134 0 0 138 136 139 81 1 125 86 64 89 0 0 136 126 140 84 32 137
 7a8f8d84f30706c150dea4e3dda374da84 32 140 c7c87d623480cd473bcdcda434d4da3c81 1
 138 83 64 132 0 0 141 135 142 84 32 139 dd389f6f78de5bd922dee4fc9b8116f516 132
 26 138 ?109 143 134 130 0 0 7 81 1 141 82 64 143 0 0 144 138 145 84 32 142 4d97
f8cb06bc17dc2d736f8fc891b43d16 143 30 141 ?146 95 132 133 0 0 7 81 1 144 81 64 9
5 0 0 93 141 147 84 32 145 ee7f7c2aba862860454e8685ff91869316 95 34 144 ?100 24
 143 148 0 0 7 81 1 93 80 64 24 0 0 0 144 149 84 32 147 9d215f54b21990713f550f8d
9052c18684 32 149 5f433f6c1c5f11f6a917aaa682006f3417 100 0 150 146 94 98 97 95 0
 0 +30 148 56 0 95 96 133 0 +-.05 -.05 0 -1387778780781446e-31 1 0 30 96 55 0 24
 0 148 0 +.05 -.05 0 -1 -277555756156289e-30 0 30 133 57 0 143 148 130 0 +-.05 1
4210854715202e-30 0 1 14210854715202e-29 0 15 150 38 0 94 88 119 17 146 0 150 10
9 100 105 101 143 0 0 +17 94 0 150 100 109 25 151 24 0 0 +17 109 0 150 94 146 10
2 107 132 0 151 +17 151 0 0 0 0 102 94 24 0 0 -17 107 0 0 0 0 105 109 132 0 146
 -17 101 0 0 0 0 98 146 143 0 100 -14 88 20 152 ?0 0 150 19 20 +0 0 0 0 19 81 1
 152 91 75 88 128 0 0 0 153 81 1 128 88 64 88 0 152 126 0 154 83 3 153 .5019608
 .6352941 .7058824 84 32 154 90e820832f3c74751196fd0b9633371617 122 0 119 118 12
0 114 112 134 0 0 +17 112 0 0 0 0 110 122 134 0 120 -84 32 129 282950121a471b261
41dc731001138b917 115 0 0 0 0 114 118 124 0 122 -74 20 87 4 0 0 85 128 152 16 0
 0 0 0 0 0 0 0 0 0 0 0 0 0 0 0 81 2 85 79 78 7 0 16 0 0 155 156 83 1 155 7830.64
 84 8 156 Kg/Cu M 82 1 86 171 81 1 5 92 35 3 157 0 0 0 158 70 6 0 4 T3 0 0 4 20
 1 159 159 13 8 3 0 3 0 160 0 0 12 160 50 9 63 0 160 0 0 0 +-21316282072803e-30
 -21316282072803e-30 0 0 0 1 -406024420434343e-30 1 0 30 10 62 0 161 162 0 0 -.3
5 .3 0 647630097698008e-30 -1 0 29 11 54 0 163 164 0 .35 .3 0 19 12 1 0 3 0 0 8
 V0 16 13 37 165 ?166 0 167 168 0 0 3 18 14 33 0 169 0 170 171 ?3 17 169 0 0 0 0
 14 172 167 0 166 -18 170 29 0 173 14 174 175 ?3 29 171 47 0 14 0 175 -.15 .1 0
 29 175 48 0 170 171 176 .15 .1 0 29 176 49 0 177 175 178 .15 -.1 0 18 177 22 0
 179 174 163 176 ?3 29 178 50 0 174 176 180 -.15 -.1 0 18 174 25 0 181 170 177 1
78 ?3 29 180 51 0 182 178 183 -.35 .3 0 18 182 5 0 184 185 186 180 ?3 29 183 52
 0 186 180 164 -.35 -.3 0 18 186 2 0 187 182 0 183 ?3 29 164 53 0 185 183 11 .35
 -.3 0 18 185 9 0 188 163 182 164 ?3 17 188 0 0 0 0 185 189 161 0 190 -18 163 13
 0 189 177 185 11 ?3 17 189 0 191 192 190 163 188 161 0 193 +15 191 19 0 192 160
 0 17 192 0 191 194 189 182 193 195 0 0 +17 190 0 191 189 194 185 187 196 0 0 +1
6 161 14 197 ?189 196 195 10 0 0 3 17 193 0 0 0 0 163 192 195 0 0 -16 195 17 198
 ?192 161 0 199 0 0 3 81 1 198 87 64 195 0 0 197 200 201 30 199 59 0 195 202 203
 0 --.35 .3 0 1 793016446160826e-31 0 30 202 58 0 204 205 199 0 +.15 -.1 0 -1 0
 0 30 203 60 0 206 199 162 0 --.35 -.3 0 -925185853854297e-31 1 0 16 206 6 207 ?
194 204 196 203 0 0 3 30 162 61 0 196 203 10 0 -.35 -.3 0 -1 -396508223080413e-3
0 0 16 196 10 208 ?190 206 161 162 0 0 3 81 1 208 85 64 196 0 0 207 197 209 81 1
 207 84 64 206 0 0 210 208 211 81 1 197 86 64 161 0 0 208 198 212 84 32 209 4487
5af17feb0da9eec19654ff5cb49f84 32 212 a3b658b6cc3faf8a2fe406d2794db52481 1 210 8
3 64 204 0 0 213 207 214 84 32 211 2c5529596877e7d04a49108d3c2333ef16 204 26 210
 ?181 215 206 202 0 0 3 81 1 213 82 64 215 0 0 216 210 217 84 32 214 490ca14aa72
d9f103ce47afd44b4072a16 215 30 213 ?218 167 204 205 0 0 3 81 1 216 81 64 167 0 0
 165 213 219 84 32 217 757ec46723ac7f649d85575eda3093af16 167 34 216 ?172 13 215
 220 0 0 3 81 1 165 80 64 13 0 0 0 216 221 84 32 219 6a9f661b824998b0f7365180965
26bda84 32 221 5102c10c8ea8167e011fc50fa097b2db17 172 0 222 218 166 170 169 167
 0 0 +30 220 56 0 167 168 205 0 +-.15 .1 0 1 1387778780781446e-31 0 30 168 55 0
 13 0 220 0 +-.15 -.1 0 0 1 0 30 205 57 0 215 220 202 0 +.15 .1 0 13877787807814
44e-31 -1 0 15 222 38 0 166 160 191 17 218 0 222 181 172 177 173 215 0 0 +17 166
 0 222 172 181 14 223 13 0 0 +17 181 0 222 166 218 174 179 204 0 223 +17 223 0 0
 0 0 174 166 13 0 0 -17 179 0 0 0 0 177 181 204 0 218 -17 173 0 0 0 0 170 218 21
5 0 172 -14 160 20 224 ?0 0 222 8 9 +0 0 0 0 8 81 1 224 91 75 160 200 0 0 0 225
 81 1 200 88 64 160 0 224 198 0 226 83 3 225 .5019608 .6352941 .7058824 84 32 22
6 3a84076cc277f128b2a6f2f40c8f81bf17 194 0 191 190 192 186 184 206 0 0 +17 184 0
 0 0 0 182 194 206 0 192 -84 32 201 8accf34bb1671647398b722cf451d78c17 187 0 0 0
 0 186 190 196 0 194 -74 20 159 4 0 0 157 200 224 5 0 0 0 0 0 0 0 0 0 0 0 0 0 0
 0 0 81 2 157 79 78 3 0 5 0 0 227 228 83 1 227 7830.64 84 8 228 Kg/Cu M 82 1 158
 171 1 0 
