**ABCDEFGHIJKLMNOPQRSTUVWXYZabcdefghijklmnopqrstuvwxyz**************************
**PARASOLID !"#$%&'()*+,-./:;<=>?@[\]^_`{|}~0123456789**************************
**PART1;
MC=x64/Windows NT;
MC_MODEL=genuineintel family 6 model 10 stepping 5, intel(r) xeon(r) cpu           w3550  @ 3.07ghz;
MC_ID=133-7320;
OS=windows nt (x64);
OS_RELEASE=6.1 windows 7 ultimate (build 7601) service pack 1;
FRU=mdc_ugii_v7.0_djl_can_vrh;
APPL=unigraphics;
SITE=unknown;
USER=Afonin;
FORMAT=text;
GUISE=transmit;
KEY=ModelGeomComplexFormMultyEld;
FILE=D:\MyFilesCur\MyPrgs\Ansys\Geom\ModelGeomComplexFormMultyEld.x_t;
DATE=15-feb-2024;
**PART2;
SCH=SCH_2900123_28101;
USFLD_SIZE=0;
**PART3;
**END_OF_HEADER*****************************************************************
T51 : TRANSMIT FILE created by modeller version 290012323 SCH_2900123_28101_1300
6203 0 10 19 CCCCCCCI4 mesh1006 0 I8 polyline1008 0 CCCCCCCCCCZ1 7 0 0 0 0 0 0 0
 0 0 1e3 1e-8 0 0 0 1 0 1 2 11 255 2 7 0 1 3 0 1 4 0 0 0 12 33 CCCCCCI4 mesh1006
 0 I8 polyline1008 0 CCCCCCCDI5 owner1040 0 CCCCCCI13 boundary_mesh1006 0 I17 bo
undary_polyline1008 0 CCCA16 index_map_offset0 0 1 dA9 index_map82 0 A17 node_id
_index_map82 0 A20 schema_embedding_map82 0 A5 child12 0 A14 lowest_node_id0 0 1
 dZ3 242 5 6 0 0 0 0 0 0 1e3 1e-8 2 7 0 1 0 3 1 8 9 10 11 0 0 12 13 14 0 0 0 0 0
 0 11 4 6 0 1 7 0 1 15 2 0 0 12 7 58 16 17 0 0 0 0 0 0 1e3 1e-8 4 18 3 1 0 3 1 1
9 20 21 22 0 0 23 24 25 0 0 0 0 0 0 11 15 5 0 1 18 0 1 26 4 0 0 12 18 58 27 28 0
 0 0 0 0 0 1e3 1e-8 15 29 7 1 0 3 1 30 31 32 33 0 0 34 35 36 0 0 0 0 0 0 11 26 4
 0 1 29 0 1 37 15 0 0 12 29 58 38 39 0 0 0 0 0 0 1e3 1e-8 26 40 18 1 0 3 1 41 42
 43 44 0 0 45 46 47 0 0 0 0 0 0 11 37 3 0 1 40 0 1 48 26 0 0 12 40 58 49 50 0 0
 0 0 0 0 1e3 1e-8 37 51 29 1 0 3 1 52 53 54 55 0 0 56 57 58 0 0 0 0 0 0 11 48 2
 0 1 51 0 1 59 37 0 0 12 51 58 60 61 0 0 0 0 0 0 1e3 1e-8 48 62 40 1 0 3 1 63 64
 65 66 0 0 67 68 69 0 0 0 0 0 0 11 59 1 0 1 62 0 1 0 48 0 0 12 62 95 70 71 0 0 0
 0 0 0 1e3 1e-8 59 0 51 1 0 3 1 72 73 74 75 0 0 76 77 78 0 0 0 0 0 0 81 255 1 70
 95 79 62 80 0 0 0 81 70 11 CI9 list_type0 0 1 uI10 notransmit0 0 1 lCCCDCCDI12
 finger_index0 0 1 dI12 finger_block1012 0 CZ71 0 4 T62 0 0 4 20 1 82 82 13 255
 72 3 0 62 0 83 0 0 76 83 50 255 73 63 0 83 0 0 0 -.1 -333955085807247e-30 0 0 0
 1 -1 28421709430404e-29 0 30 255 74 62 0 84 85 0 0 --.5 .4 0 1 -462592926927149
e-30 0 29 255 75 54 0 86 87 0 -.5 .4 0 19 8 CCCCCCCA5 owner12 0 Z76 1 0 62 0 0 7
2 V0 16 255 77 37 88 ?89 0 90 91 0 0 62 18 255 78 33 0 92 0 93 94 ?62 17 255 92
 0 0 0 0 78 95 90 0 89 -18 93 29 0 96 78 97 98 ?62 29 94 47 0 78 0 98 7460698725
48105e-31 .15 0 29 98 48 0 93 94 99 .4490893303659635 .01820813702345055 0 29 99
 49 0 100 98 101 .4490893303659635 -.0182081370234506 0 18 100 22 0 102 97 86 99
 ?62 29 101 50 0 97 99 103 7105427357601e-29 -.15 0 18 97 25 0 104 93 100 101 ?6
2 29 103 51 0 105 101 106 -.5 -.4 0 18 105 5 0 107 108 109 103 ?62 29 106 52 0 1
09 103 87 .7 -.4 0 18 109 2 0 110 105 0 106 ?62 29 87 53 0 108 106 75 .7 .4 0 18
 108 9 0 111 86 105 87 ?62 17 111 0 0 0 0 108 112 84 0 113 -18 86 13 0 112 100 1
08 75 ?62 17 112 0 114 115 113 86 111 84 0 116 +15 255 114 19 0 115 83 0 17 115
 0 114 117 112 105 116 118 0 0 +17 113 0 114 112 117 108 110 119 0 0 +16 84 14 1
20 ?112 119 118 74 0 0 62 17 116 0 0 0 0 86 115 118 0 0 -16 118 17 121 ?115 84 0
 122 0 0 62 81 1 121 87 123 118 0 0 120 124 125 30 122 59 0 118 126 127 0 --.5 -
.4 0 208166817117217e-30 1 0 134 255 126 58 0 128 129 122 0 +130 131 30 127 60 0
 132 122 85 0 -.7 -.4 0 -1 693889390390723e-30 0 16 132 6 133 ?117 128 119 127 0
 0 62 30 85 61 0 119 127 74 0 -.7 .4 0 -4163336342344335e-31 -1 0 16 119 10 134
 ?113 132 84 85 0 0 62 81 1 134 85 123 119 0 0 133 120 135 80 255 1 123 136 137
 9000 1 1 1 1 1 1 1 1 0 FFFFTFTFFFFFFF3 81 1 133 84 123 132 0 0 138 134 139 81 1
 120 86 123 84 0 0 134 121 140 84 255 32 135 de77fd1693fe08223cc17d873543390684
 32 140 c526cb16bf055c683926790fe840525f81 1 138 83 123 128 0 0 141 133 142 84 3
2 139 73db64a3befbdb3fa5f912f4774632d116 128 26 138 ?104 143 132 126 0 0 62 81 1
 141 82 123 143 0 0 144 138 145 84 32 142 587e78cb7f9cf7fbcca7c539c67159e316 143
 30 141 ?146 90 128 129 0 0 62 81 1 144 81 123 90 0 0 88 141 147 84 32 145 fa3b4
19df13765c696525bdad380e55616 90 34 144 ?95 77 143 148 0 0 62 81 1 88 80 123 77
 0 0 0 144 149 84 32 147 e7a9d45239709f0ebb204ef061caa89684 32 149 5c0d9c60718cd
6e61cb058c39c776a4017 95 0 150 146 89 93 92 90 0 0 +134 148 56 0 90 91 129 0 +15
1 152 31 255 91 55 0 77 0 148 0 +0 0 0 0 0 -1 1 1224646799147352e-31 0 .15 31 12
9 57 0 143 148 126 0 +.267515836355551 0 0 0 0 -1 1 1224646799147352e-31 0 .1824
84163644449 136 255 151 3 9 3 7 6 FFF1 153 154 155 135 255 152 1 0 45 255 27 153
 746069872548105e-31 .15 0 .0309892275058149 .1519616673386265 0 .09014952083850
23 .1510912703724385 0 .2098888687498805 .1349019527687422 0 .3205265736991145 .
079839129562832 0 .40843582702184 .0474215988975795 0 .4458327201361265 .0284867
2297354995 0 .4485430714893465 .0207386571824725 0 .4490893303659635 .0182081370
234506 0 127 255 7 154 4 1 1 1 1 1 4 128 255 7 155 0 .1936295930205485 .37286092
41735995 .754991271668248 .948802470729466 .984667803791235 1 15 150 38 0 89 83
 114 17 146 0 150 104 95 100 96 143 0 0 +17 89 0 150 95 104 78 156 77 0 0 +17 10
4 0 150 89 146 97 102 128 0 156 +17 156 0 0 0 0 97 89 77 0 0 -17 102 0 0 0 0 100
 104 128 0 146 -17 96 0 0 0 0 93 146 143 0 95 -14 255 83 20 157 ?0 0 150 72 73 -
0 0 0 0 72 81 1 157 94 158 83 124 0 0 0 159 80 1 158 0 160 8001 0 0 0 0 3 5 0 0
 0 FFFFTFTFFFFFFF2 81 1 124 88 123 83 0 157 121 0 161 83 255 3 159 .5019608 .635
2941 .7058824 84 32 161 32f9ff60c0defb6b61fba25a2d6868e679 255 15 160 SDL/TYSA_C
OLOUR79 15 137 UGS/ObjectState17 117 0 114 113 115 109 107 132 0 0 +17 107 0 0 0
 0 105 117 132 0 115 -136 130 3 9 3 7 6 FFF1 162 163 164 135 131 1 0 45 27 162 .
4490893303659635 -.0182081370234506 0 .4485430714893465 -.0207386571824725 0 .44
58327201361265 -.02848672297354995 0 .40843582702184 -.0474215988975795 0 .32052
65736991145 -.079839129562832 0 .2098888687498805 -.1349019527687422 0 .09014952
08385023 -.1510912703724385 0 .0309892275058149 -.1519616673386265 0 74606987254
8105e-31 -.15 0 127 7 163 4 1 1 1 1 1 4 128 7 164 0 .01533219620876505 .05119752
92705343 .245008728331752 .627139075826401 .806370406979451 1 84 32 125 755ed22d
349ee3d5a9c2cd7977c0150a17 110 0 0 0 0 109 113 119 0 117 -74 4 CI16 index_map_of
fset0 0 1 dCCZ20 82 4 0 0 124 80 157 70 0 0 0 0 0 0 0 0 0 0 0 0 0 0 0 0 81 2 80
 89 165 62 0 70 0 0 166 167 80 2 165 168 169 8004 0 0 0 0 3 5 0 0 0 FFTFFFFFFFFF
FF2 3 83 1 166 7830.64 84 8 167 Kg/Cu M 79 16 169 SDL/TYSA_DENSITY80 1 79 170 17
1 9000 0 0 0 0 3 5 0 0 0 FFTFFFFFFFFFFF1 82 255 1 81 171 79 24 171 UG2/BODY_COLO
R_ATTRIBUTE81 1 60 58 79 51 172 0 0 0 173 70 61 0 4 T51 0 0 4 20 1 174 174 13 63
 3 0 51 0 175 0 0 67 175 50 64 34 0 175 0 0 0 +.05 -.1044 0 0 0 -1 0 -1 0 30 65
 33 0 176 177 0 0 +.03 -.1 0 1 0 0 29 66 29 0 178 179 0 .03 -.1 0 19 67 1 0 51 0
 0 63 V0 16 68 14 180 ?181 0 182 183 0 0 51 18 69 13 0 184 0 185 186 ?51 17 184
 0 0 0 0 69 187 188 0 181 -18 185 9 0 189 69 190 191 ?51 29 186 26 0 69 0 191 .0
3 -.11 0 29 191 27 0 185 186 179 .08 -.11 0 29 179 28 0 190 191 66 .08 -.1 0 18
 190 5 0 192 185 178 179 ?51 17 192 0 193 189 187 190 194 176 0 195 +18 178 2 0
 187 190 0 66 ?51 17 187 0 193 192 181 178 184 188 0 194 +15 193 19 0 187 175 0
 17 181 0 193 187 189 69 196 68 0 0 +16 188 17 197 ?187 176 0 198 0 0 51 17 194
 0 0 0 0 178 192 176 0 0 -16 176 6 199 ?192 182 188 65 0 0 51 81 1 199 49 123 17
6 0 0 200 197 201 16 182 10 200 ?189 68 176 177 0 0 51 81 1 200 48 123 182 0 0 1
80 199 202 17 189 0 193 181 192 185 195 182 0 196 +30 177 32 0 182 183 65 0 +.08
 -.1 0 -1387778780781446e-30 -1 0 30 183 31 0 68 198 177 0 +.08 -.11 0 -1 0 0 30
 198 30 0 188 0 183 0 +.03 -.11 0 0 1 0 17 195 0 0 0 0 190 189 182 0 0 -17 196 0
 0 0 0 185 181 68 0 0 -81 1 180 47 123 68 0 0 0 200 203 84 32 202 d878a917a636b6
b73d80ad1aea495cf784 32 203 ef098cc4b99386690fe8b4dba9f8429c81 1 197 50 123 188
 0 0 199 204 205 84 32 201 44f2be5a8e10284639ef8046a87c2a0881 1 204 51 123 175 0
 206 197 0 207 84 32 205 e452bd697b0b283acba176e6791cf2e414 175 20 206 ?0 0 193
 63 64 +0 0 0 0 63 81 1 206 57 158 175 204 0 0 0 208 84 32 207 8bee010478bf59db1
19d155f1b595ca783 3 208 .5019608 .6352941 .7058824 74 20 174 4 0 0 204 172 206 6
0 0 0 0 0 0 0 0 0 0 0 0 0 0 0 0 0 81 2 172 52 165 51 0 60 0 0 209 210 83 1 209 7
830.64 84 8 210 Kg/Cu M 82 1 173 171 81 1 49 58 79 40 211 0 0 0 212 70 50 0 4 T4
0 0 0 4 20 1 213 213 13 52 3 0 40 0 214 0 0 56 214 50 53 34 0 214 0 0 0 +-.05 -.
1044 0 0 0 -1 0 -1 0 30 54 33 0 215 216 0 0 +-.07 -.1 0 1 0 0 29 55 29 0 217 218
 0 -.07 -.1 0 19 56 1 0 40 0 0 52 V0 16 57 14 219 ?220 0 221 222 0 0 40 18 58 13
 0 223 0 224 225 ?40 17 223 0 0 0 0 58 226 227 0 220 -18 224 9 0 228 58 229 230
 ?40 29 225 26 0 58 0 230 -.07 -.11 0 29 230 27 0 224 225 218 -.02 -.11 0 29 218
 28 0 229 230 55 -.02 -.1 0 18 229 5 0 231 224 217 218 ?40 17 231 0 232 228 226
 229 233 215 0 234 +18 217 2 0 226 229 0 55 ?40 17 226 0 232 231 220 217 223 227
 0 233 +15 232 19 0 226 214 0 17 220 0 232 226 228 58 235 57 0 0 +16 227 17 236
 ?226 215 0 237 0 0 40 17 233 0 0 0 0 217 231 215 0 0 -16 215 6 238 ?231 221 227
 54 0 0 40 81 1 238 49 123 215 0 0 239 236 240 16 221 10 239 ?228 57 215 216 0 0
 40 81 1 239 48 123 221 0 0 219 238 241 17 228 0 232 220 231 224 234 221 0 235 +
30 216 32 0 221 222 54 0 +-.02 -.1 0 -3469446951953615e-31 -1 0 30 222 31 0 57 2
37 216 0 +-.02 -.11 0 -1 0 0 30 237 30 0 227 0 222 0 +-.07 -.11 0 0 1 0 17 234 0
 0 0 0 229 228 221 0 0 -17 235 0 0 0 0 224 220 57 0 0 -81 1 219 47 123 57 0 0 0
 239 242 84 32 241 9ac72f95b0440aa06a273e6cbb4e977284 32 242 6aabc6322935c2613aa
3a02592fabc6681 1 236 50 123 227 0 0 238 243 244 84 32 240 50ffe99dade6f3483a037
8767d95004d81 1 243 51 123 214 0 245 236 0 246 84 32 244 3f963763a9c8fa490b15c8b
b8e8077e414 214 20 245 ?0 0 232 52 53 +0 0 0 0 52 81 1 245 57 158 214 243 0 0 0
 247 84 32 246 6d53da8bb5e2d684e85aa27078f54c4383 3 247 .5019608 .6352941 .70588
24 74 20 213 4 0 0 243 211 245 49 0 0 0 0 0 0 0 0 0 0 0 0 0 0 0 0 81 2 211 52 16
5 40 0 49 0 0 248 249 83 1 248 7830.64 84 8 249 Kg/Cu M 82 1 212 171 81 1 38 58
 79 29 250 0 0 0 251 70 39 0 4 T29 0 0 4 20 1 252 252 13 41 3 0 29 0 253 0 0 45
 253 50 42 34 0 253 0 0 0 +-.1156 .005 0 0 0 1 1 -56843418860808e-29 0 30 43 33
 0 254 255 0 0 +-.12 .025 0 -832667268468867e-30 -1 0 29 44 29 0 256 257 0 -.12
 .025 0 19 45 1 0 29 0 0 41 V0 16 46 14 258 ?259 0 260 261 0 0 29 18 47 13 0 262
 0 263 264 ?29 17 262 0 0 0 0 47 265 266 0 259 -18 263 9 0 267 47 268 269 ?29 29
 264 26 0 47 0 269 -.11 .025 0 29 269 27 0 263 264 257 -.11 -.025 0 29 257 28 0
 268 269 44 -.12 -.025 0 18 268 5 0 270 263 256 257 ?29 17 270 0 271 267 265 268
 272 254 0 273 +18 256 2 0 265 268 0 44 ?29 17 265 0 271 270 259 256 262 266 0 2
72 +15 271 19 0 265 253 0 17 259 0 271 265 267 47 274 46 0 0 +16 266 17 275 ?265
 254 0 276 0 0 29 17 272 0 0 0 0 256 270 254 0 0 -16 254 6 277 ?270 260 266 43 0
 0 29 81 1 277 49 123 254 0 0 278 275 279 16 260 10 278 ?267 46 254 255 0 0 29 8
1 1 278 48 123 260 0 0 258 277 280 17 267 0 271 259 270 263 273 260 0 274 +30 25
5 32 0 260 261 43 0 +-.12 -.025 0 1 0 0 30 261 31 0 46 276 255 0 +-.11 -.025 0 5
55111512312579e-30 1 0 30 276 30 0 266 0 261 0 +-.11 .025 0 -1 416333634234434e-
29 0 17 273 0 0 0 0 268 267 260 0 0 -17 274 0 0 0 0 263 259 46 0 0 -81 1 258 47
 123 46 0 0 0 278 281 84 32 280 c75cff67cc988dcb8acf91c32fef7f7384 32 281 c4ff1e
0f06ad6df64ad5255955f34d5381 1 275 50 123 266 0 0 277 282 283 84 32 279 0c4d8b0c
d76d456e0f2fb6140adf36a181 1 282 51 123 253 0 284 275 0 285 84 32 283 fd146964b5
e75d27df868a94b5c24ed614 253 20 284 ?0 0 271 41 42 +0 0 0 0 41 81 1 284 57 158 2
53 282 0 0 0 286 84 32 285 baeafe2e6b192e5586a52fb82b4f492983 3 286 .5019608 .63
52941 .7058824 74 20 252 4 0 0 282 250 284 38 0 0 0 0 0 0 0 0 0 0 0 0 0 0 0 0 81
 2 250 52 165 29 0 38 0 0 287 288 83 1 287 7830.64 84 8 288 Kg/Cu M 82 1 251 171
 81 1 27 58 79 18 289 0 0 0 290 70 28 0 4 T18 0 0 4 20 1 291 291 13 30 3 0 18 0
 292 0 0 34 292 50 31 34 0 292 0 0 0 +-.05 .1056 0 0 0 -1 -28421709430404e-29 -1
 0 30 32 33 0 293 294 0 0 +-.07 .11 0 1 -277555756156289e-30 0 29 33 29 0 295 29
6 0 -.07 .11 0 19 34 1 0 18 0 0 30 V0 16 35 14 297 ?298 0 299 300 0 0 18 18 36 1
3 0 301 0 302 303 ?18 17 301 0 0 0 0 36 304 305 0 298 -18 302 9 0 306 36 307 308
 ?18 29 303 26 0 36 0 308 -.07 .1 0 29 308 27 0 302 303 296 -.02 .1 0 29 296 28
 0 307 308 33 -.02 .11 0 18 307 5 0 309 302 295 296 ?18 17 309 0 310 306 304 307
 311 293 0 312 +18 295 2 0 304 307 0 33 ?18 17 304 0 310 309 298 295 301 305 0 3
11 +15 310 19 0 304 292 0 17 298 0 310 304 306 36 313 35 0 0 +16 305 17 314 ?304
 293 0 315 0 0 18 17 311 0 0 0 0 295 309 293 0 0 -16 293 6 316 ?309 299 305 32 0
 0 18 81 1 316 49 123 293 0 0 317 314 318 16 299 10 317 ?306 35 293 294 0 0 18 8
1 1 317 48 123 299 0 0 297 316 319 17 306 0 310 298 309 302 312 299 0 313 +30 29
4 32 0 299 300 32 0 +-.02 .11 0 -1387778780781446e-30 -1 0 30 300 31 0 35 315 29
4 0 +-.02 .1 0 -1 0 0 30 315 30 0 305 0 300 0 +-.07 .1 0 2775557561562895e-30 1
 0 17 312 0 0 0 0 307 306 299 0 0 -17 313 0 0 0 0 302 298 35 0 0 -81 1 297 47 12
3 35 0 0 0 317 320 84 32 319 b5a51486c9c8b5404c6be260133222b384 32 320 0661312e0
c6c51412990a2d8192c4a0a81 1 314 50 123 305 0 0 316 321 322 84 32 318 a723e205a69
3704de2f82dde0a82991581 1 321 51 123 292 0 323 314 0 324 84 32 322 098edb8786d69
3fe1e69c3930077439314 292 20 323 ?0 0 310 30 31 +0 0 0 0 30 81 1 323 57 158 292
 321 0 0 0 325 84 32 324 45867c8875495d043adc94d93e79476a83 3 325 .5019608 .6352
941 .7058824 74 20 291 4 0 0 321 289 323 27 0 0 0 0 0 0 0 0 0 0 0 0 0 0 0 0 81 2
 289 52 165 18 0 27 0 0 326 327 83 1 326 7830.64 84 8 327 Kg/Cu M 82 1 290 171 8
1 1 16 58 79 7 328 0 0 0 329 70 17 0 4 T7 0 0 4 20 1 330 330 13 19 3 0 7 0 331 0
 0 23 331 50 20 34 0 331 0 0 0 +.05 .1056 0 0 0 -1 -28421709430404e-29 -1 0 30 2
1 33 0 332 333 0 0 +.03 .11 0 1 -277555756156289e-30 0 29 22 29 0 334 335 0 .03
 .11 0 19 23 1 0 7 0 0 19 V0 16 24 14 336 ?337 0 338 339 0 0 7 18 25 13 0 340 0
 341 342 ?7 17 340 0 0 0 0 25 343 344 0 337 -18 341 9 0 345 25 346 347 ?7 29 342
 26 0 25 0 347 .03 .1 0 29 347 27 0 341 342 335 .08 .1 0 29 335 28 0 346 347 22
 .08 .11 0 18 346 5 0 348 341 334 335 ?7 17 348 0 349 345 343 346 350 332 0 351
 +18 334 2 0 343 346 0 22 ?7 17 343 0 349 348 337 334 340 344 0 350 +15 349 19 0
 343 331 0 17 337 0 349 343 345 25 352 24 0 0 +16 344 17 353 ?343 332 0 354 0 0
 7 17 350 0 0 0 0 334 348 332 0 0 -16 332 6 355 ?348 338 344 21 0 0 7 81 1 355 4
9 123 332 0 0 356 353 357 16 338 10 356 ?345 24 332 333 0 0 7 81 1 356 48 123 33
8 0 0 336 355 358 17 345 0 349 337 348 341 351 338 0 352 +30 333 32 0 338 339 21
 0 +.08 .11 0 -1387778780781446e-30 -1 0 30 339 31 0 24 354 333 0 +.08 .1 0 -1 0
 0 30 354 30 0 344 0 339 0 +.03 .1 0 277555756156289e-29 1 0 17 351 0 0 0 0 346
 345 338 0 0 -17 352 0 0 0 0 341 337 24 0 0 -81 1 336 47 123 24 0 0 0 356 359 84
 32 358 5ac03012f6a2faa37f18cd32ef74f43084 32 359 7ca96215004b9de53c2880ef3fb3cd
db81 1 353 50 123 344 0 0 355 360 361 84 32 357 d308c1c5d07ad55757c49389c0c48065
81 1 360 51 123 331 0 362 353 0 363 84 32 361 3ab307a85c35c77da887240bf80493e214
 331 20 362 ?0 0 349 19 20 +0 0 0 0 19 81 1 362 57 158 331 360 0 0 0 364 84 32 3
63 b16453b763755b76ea2c0e1fe3f0f5e183 3 364 .5019608 .6352941 .7058824 74 20 330
 4 0 0 360 328 362 16 0 0 0 0 0 0 0 0 0 0 0 0 0 0 0 0 81 2 328 52 165 7 0 16 0 0
 365 366 83 1 365 7830.64 84 8 366 Kg/Cu M 82 1 329 171 81 1 5 242 79 3 367 0 0
 0 368 70 6 0 4 T3 0 0 4 20 1 369 369 13 8 3 0 3 0 370 0 0 12 370 50 9 179 0 370
 0 0 0 -.1431973208755852 1605826582817825e-31 0 0 0 1 -.996805184282853 .079871
3001448379 0 30 10 178 0 371 372 0 0 +-.02 .11 0 -1387778780781446e-30 -1 0 29 1
1 154 0 373 374 0 -.02 .11 0 19 12 1 0 3 0 0 8 V0 16 13 113 375 ?376 0 377 378 0
 0 3 18 14 109 0 379 0 380 381 ?3 17 379 0 0 0 0 14 382 377 0 376 -18 380 105 0
 382 14 383 384 ?3 29 381 134 0 14 384 385 -.11 .025 0 29 384 133 0 380 386 381
 -.11 -.025 0 29 385 135 0 387 381 388 -.07 -.11 0 18 387 79 0 389 390 391 385 ?
3 29 388 136 0 390 385 392 -.02 -.11 0 18 390 82 0 393 394 387 388 ?3 29 392 137
 0 394 388 395 -.02 -.1 0 18 394 86 0 396 397 390 392 ?3 29 395 138 0 397 392 39
8 -.07 -.1 0 18 397 90 0 399 400 394 395 ?3 29 398 139 0 401 395 402 .03 .11 0 1
8 401 22 0 403 404 405 398 ?3 29 402 140 0 406 398 407 .03 .1 0 18 406 29 0 408
 409 404 402 ?3 29 407 141 0 409 402 410 .08 .1 0 18 409 33 0 411 412 406 407 ?3
 29 410 142 0 404 407 413 .08 .11 0 18 404 25 0 414 406 401 410 ?3 29 413 143 0
 415 410 416 .4490893303659635 .0182081370234506 0 18 415 5 0 417 418 419 413 ?3
 29 416 144 0 419 413 420 .4490893303659635 -.0182081370234506 0 18 419 2 0 421
 415 0 416 ?3 29 420 145 0 418 416 422 746069872548105e-31 -.15 0 18 418 9 0 423
 405 415 420 ?3 29 422 146 0 405 420 424 746069872548105e-31 .15 0 18 405 13 0 4
25 401 418 422 ?3 29 424 147 0 412 422 426 .03 -.11 0 18 412 41 0 427 428 409 42
4 ?3 29 426 148 0 428 424 429 .08 -.11 0 18 428 44 0 430 431 412 426 ?3 29 429 1
49 0 431 426 432 .08 -.1 0 18 431 48 0 433 434 428 429 ?3 29 432 150 0 434 429 4
35 .03 -.1 0 18 434 52 0 436 437 431 432 ?3 29 435 151 0 437 432 438 -.07 .11 0
 18 437 60 0 439 373 434 435 ?3 29 438 152 0 440 435 374 -.07 .1 0 18 440 67 0 4
41 391 373 438 ?3 29 374 153 0 391 438 11 -.02 .1 0 18 391 71 0 442 387 440 374
 ?3 17 442 0 0 0 0 391 441 443 0 444 -17 441 0 445 439 444 440 442 443 0 446 +16
 443 72 447 ?441 371 448 372 0 0 3 17 444 0 445 441 449 391 450 371 0 0 +15 445
 61 0 449 370 0 17 449 0 445 444 439 373 451 452 0 450 +17 450 0 0 0 0 373 444 3
71 0 0 -16 371 75 453 ?444 454 443 10 0 0 3 81 1 453 220 123 371 0 0 455 447 456
 16 454 83 457 ?389 458 371 459 0 0 3 81 1 457 217 123 454 0 0 460 461 462 17 38
9 0 463 464 393 387 465 454 0 466 +16 458 87 460 ?393 467 454 468 0 0 3 30 459 1
60 0 454 469 468 0 --.07 -.11 0 1 0 0 30 469 159 0 470 471 459 0 --.07 -.1 0 0 -
1 0 30 468 161 0 458 459 472 0 --.02 -.11 0 3469446951953615e-31 1 0 30 472 162
 0 467 468 473 0 --.02 -.1 0 -1 0 0 16 467 91 455 ?396 470 458 472 0 0 3 30 473
 163 0 474 472 475 0 +.03 .11 0 1 -277555756156289e-30 0 16 474 26 476 ?414 477
 478 473 0 0 3 30 475 164 0 477 473 479 0 +.03 .1 0 277555756156289e-29 1 0 16 4
77 30 480 ?403 481 474 475 0 0 3 30 479 165 0 481 475 482 0 +.08 .1 0 -1 0 0 16
 481 34 483 ?408 484 477 479 0 0 3 30 482 166 0 484 479 485 0 +.08 .11 0 -138777
8780781446e-30 -1 0 16 484 37 486 ?487 488 481 482 0 0 3 134 485 167 0 489 482 4
90 0 +491 492 16 489 17 493 ?425 494 0 485 0 0 3 31 490 168 0 478 485 495 0 +.26
7515836355551 0 0 0 0 1 1 0 0 .182484163644449 136 491 3 9 3 7 6 FFF1 496 497 49
8 135 492 1 0 45 27 496 .4490893303659635 .0182081370234506 0 .4485430714893465
 .0207386571824725 0 .4458327201361265 .02848672297354995 0 .40843582702184 .047
4215988975795 0 .3205265736991145 .079839129562832 0 .2098888687498805 .13490195
27687422 0 .0901495208385023 .1510912703724385 0 .0309892275058149 .151961667338
6265 0 746069872548105e-31 .15 0 127 7 497 4 1 1 1 1 1 4 128 7 498 0 .0153321962
0876505 .0511975292705343 .245008728331752 .627139075826401 .806370406979451 1 1
6 478 6 499 ?500 474 501 490 0 0 3 134 495 169 0 501 490 502 0 +503 504 16 501 1
0 505 ?421 478 494 495 0 0 3 31 502 170 0 494 495 506 0 +0 0 0 0 0 1 1 0 0 .15 1
36 503 3 9 3 7 6 FFF1 507 508 509 135 504 1 0 45 27 507 746069872548105e-31 -.15
 0 .0309892275058149 -.1519616673386265 0 .0901495208385023 -.1510912703724385 0
 .2098888687498805 -.1349019527687422 0 .3205265736991145 -.079839129562832 0 .4
0843582702184 -.0474215988975795 0 .4458327201361265 -.02848672297354995 0 .4485
430714893465 -.0207386571824725 0 .4490893303659635 -.0182081370234506 0 127 7 5
08 4 1 1 1 1 1 4 128 7 509 0 .1936295930205485 .3728609241735995 .75499127166824
8 .948802470729466 .984667803791235 1 16 494 14 510 ?423 501 489 502 0 0 3 30 50
6 171 0 511 502 512 0 -.03 -.1 0 0 -1 0 16 511 56 513 ?514 452 515 506 0 0 3 30
 512 172 0 488 506 516 0 -.03 -.11 0 1 0 0 16 488 45 517 ?427 518 484 512 0 0 3
 30 516 173 0 518 512 519 0 -.08 -.11 0 1387778780781446e-30 1 0 16 518 49 520 ?
430 515 488 516 0 0 3 30 519 174 0 515 516 521 0 -.08 -.1 0 -1 0 0 16 515 53 522
 ?433 511 518 519 0 0 3 30 521 175 0 452 519 523 0 +-.07 .11 0 1 -27755575615628
9e-30 0 16 452 64 524 ?449 448 511 521 0 0 3 30 523 176 0 448 521 372 0 +-.07 .1
 0 2775557561562895e-30 1 0 16 448 68 525 ?439 443 452 523 0 0 3 30 372 177 0 44
3 523 10 0 +-.02 .1 0 -1 0 0 81 1 525 222 123 448 0 0 447 524 526 17 439 0 445 4
49 441 437 446 448 0 451 +17 446 0 0 0 0 440 439 448 0 0 -17 451 0 0 0 0 437 449
 452 0 0 -81 1 447 221 123 443 0 0 453 525 527 81 1 524 223 123 452 0 0 525 520
 528 84 32 526 098edb8786d693fe1e69c3930077439381 1 520 224 123 518 0 0 524 517
 529 84 32 528 a723e205a693704de2f82dde0a82991581 1 517 225 123 488 0 0 520 513
 530 84 32 529 c6e5f1e38e7e14d46e192f094c4015ba81 1 513 226 123 511 0 0 517 522
 531 84 32 530 45a245e0927c5db2cf444863474394b181 1 522 227 123 515 0 0 513 486
 532 84 32 531 858b35629d9836615f2b2555aa9974d781 1 486 228 123 484 0 0 522 483
 533 84 32 532 baa9e2768a52a3f65f80597c043dff1e81 1 483 229 123 481 0 0 486 480
 534 84 32 533 5ac03012f6a2faa37f18cd32ef74f43081 1 480 230 123 477 0 0 483 476
 535 84 32 534 7ca96215004b9de53c2880ef3fb3cddb81 1 476 231 123 474 0 0 480 499
 536 84 32 535 3ab307a85c35c77da887240bf80493e281 1 499 232 123 478 0 0 476 505
 537 84 32 536 d308c1c5d07ad55757c49389c0c4806581 1 505 233 123 501 0 0 499 510
 538 84 32 537 ee2f7f8be281ae070a8a719dd998557f81 1 510 234 123 494 0 0 505 493
 539 84 32 538 386a32d05276d1f135b8713df7c8b6f981 1 493 235 123 489 0 0 510 540
 541 84 32 539 807ee8b628726a229196cc95bae66dd681 1 540 236 123 370 0 542 493 0
 543 84 32 541 f30dfe7d152eba3da8761fbf8dc028b914 370 78 542 ?0 0 544 8 9 -0 0 0
 0 8 81 1 542 241 158 370 540 0 0 0 545 84 32 543 205a93221785807e18175a697cfefb
c383 3 545 .5019608 .6352941 .7058824 15 544 114 0 376 370 463 17 376 0 544 382
 546 14 547 13 0 0 +15 463 95 0 464 370 548 17 464 0 463 396 389 397 466 470 0 0
 +15 548 23 0 414 370 549 17 414 0 548 487 403 404 550 474 0 551 +15 549 19 0 42
5 370 552 17 425 0 549 423 500 405 417 489 0 553 +15 552 57 0 514 370 445 17 514
 0 552 433 427 434 554 511 0 0 +17 433 0 552 430 514 431 436 515 0 555 +17 427 0
 552 514 430 412 556 488 0 554 +17 554 0 0 0 0 412 514 511 0 0 -17 430 0 552 427
 433 428 555 518 0 556 +17 556 0 0 0 0 428 427 488 0 0 -17 555 0 0 0 0 431 430 5
18 0 0 -17 436 0 0 0 0 434 433 515 0 514 -17 423 0 549 421 425 418 553 494 0 557
 +17 500 0 549 425 421 415 558 478 0 0 +17 417 0 0 0 0 415 425 489 0 500 -17 553
 0 0 0 0 405 423 494 0 0 -17 421 0 549 500 423 419 557 501 0 558 +17 558 0 0 0 0
 419 500 478 0 0 -17 557 0 0 0 0 418 421 501 0 0 -17 487 0 548 408 414 409 551 4
84 0 0 +17 403 0 548 414 408 401 559 477 0 550 +17 550 0 0 0 0 401 414 474 0 0 -
17 551 0 0 0 0 404 487 484 0 0 -17 408 0 548 403 487 406 411 481 0 559 +17 559 0
 0 0 0 406 403 477 0 0 -17 411 0 0 0 0 409 408 481 0 487 -17 396 0 463 393 464 3
94 399 467 0 560 +17 466 0 0 0 0 387 464 470 0 0 -16 470 94 461 ?464 561 467 469
 0 0 3 81 1 461 218 123 470 0 0 457 455 562 16 561 102 563 ?546 564 470 565 0 0
 3 81 1 563 213 123 561 0 0 566 375 567 17 546 0 544 376 568 400 569 561 0 547 +
16 564 106 566 ?568 377 561 570 0 0 3 30 565 156 0 561 378 570 0 --.12 .025 0 -8
32667268468867e-30 -1 0 30 378 155 0 13 0 565 0 --.11 .025 0 -1 416333634234434e
-29 0 30 570 157 0 564 565 471 0 --.12 -.025 0 1 0 0 30 471 158 0 377 570 469 0
 --.11 -.025 0 555111512312579e-30 1 0 16 377 110 571 ?382 13 564 471 0 0 3 81 1
 571 215 123 377 0 0 375 460 572 17 382 0 544 568 376 380 379 377 0 573 +17 568
 0 544 546 382 383 573 564 0 569 +17 573 0 0 0 0 380 568 564 0 0 -18 383 101 0 5
68 380 400 386 ?3 17 569 0 0 0 0 383 546 561 0 0 -18 400 98 0 546 383 397 574 ?3
 29 386 132 0 383 574 384 -.12 -.025 0 29 574 131 0 400 0 386 -.12 .025 0 81 1 3
75 214 123 13 0 0 563 571 575 81 1 460 216 123 458 0 0 571 457 576 84 32 572 278
073710c2d56150604b48a9b6d287084 32 576 23feead0158c9374d1c60ddb5b53495884 32 575
 c70be5c50c8aca3f98d0a85e51817fb781 1 566 212 123 564 0 0 0 563 577 84 32 577 71
77695beb7660e6bb93116de0a889e917 547 0 0 0 0 400 376 13 0 0 -84 32 567 e99826a86
e6facafd39d306940d257fb81 1 455 219 123 467 0 0 461 453 578 84 32 562 d2d903bad3
c0b3b1681911a05104652184 32 578 1236583549e6d218feda64fe590fceb617 393 0 463 389
 396 390 560 458 0 465 +17 399 0 0 0 0 397 396 467 0 464 -17 560 0 0 0 0 394 393
 458 0 0 -17 465 0 0 0 0 390 389 454 0 0 -84 32 527 0661312e0c6c51412990a2d8192c
4a0a84 32 462 afda0e8717b3d00883fb87ea9bf5fd5484 32 456 b5a51486c9c8b5404c6be260
133222b318 373 63 0 449 440 437 11 ?3 74 20 369 4 0 0 540 367 542 5 0 0 0 0 0 0
 0 0 0 0 0 0 0 0 0 0 81 2 367 237 165 3 0 5 0 0 579 580 83 1 579 7830.64 84 8 58
0 Kg/Cu M 82 1 368 171 1 0 
