**ABCDEFGHIJKLMNOPQRSTUVWXYZabcdefghijklmnopqrstuvwxyz**************************
**PARASOLID !"#$%&'()*+,-./:;<=>?@[\]^_`{|}~0123456789**************************
**PART1;
MC=x64/Windows NT;
MC_MODEL=genuineintel family 6 model 10 stepping 5, intel(r) xeon(r) cpu           w3550  @ 3.07ghz;
MC_ID=133-7320;
OS=windows nt (x64);
OS_RELEASE=6.1 windows 7 ultimate (build 7601) service pack 1;
FRU=mdc_ugii_v7.0_djl_can_vrh;
APPL=unigraphics;
SITE=unknown;
USER=Afonin;
FORMAT=text;
GUISE=transmit;
KEY=ModelGeomComplexFormMultyEld2;
FILE=D:\MyFilesCur\MyPrgs\Ansys\Geom\ModelGeomComplexFormMultyEld2.x_t;
DATE=5-mar-2024;
**PART2;
SCH=SCH_2900123_28101;
USFLD_SIZE=0;
**PART3;
**END_OF_HEADER*****************************************************************
T51 : TRANSMIT FILE created by modeller version 290012323 SCH_2900123_28101_1300
6203 0 10 19 CCCCCCCI4 mesh1006 0 I8 polyline1008 0 CCCCCCCCCCZ1 7 0 0 0 0 0 0 0
 0 0 1e3 1e-8 0 0 0 1 0 1 2 11 255 2 7 0 1 3 0 1 4 0 0 0 12 33 CCCCCCI4 mesh1006
 0 I8 polyline1008 0 CCCCCCCDI5 owner1040 0 CCCCCCI13 boundary_mesh1006 0 I17 bo
undary_polyline1008 0 CCCA16 index_map_offset0 0 1 dA9 index_map82 0 A17 node_id
_index_map82 0 A20 schema_embedding_map82 0 A5 child12 0 A14 lowest_node_id0 0 1
 dZ3 91 5 6 0 0 0 0 0 0 1e3 1e-8 2 7 0 1 0 3 1 8 9 10 11 0 0 12 13 14 0 0 0 0 0
 0 11 4 6 0 1 7 0 1 15 2 0 0 12 7 70 16 17 0 0 0 0 0 0 1e3 1e-8 4 18 3 1 0 3 1 1
9 20 21 22 0 0 23 24 25 0 0 0 0 0 0 11 15 5 0 1 18 0 1 26 4 0 0 12 18 54 27 28 0
 0 0 0 0 0 1e3 1e-8 15 29 7 1 0 3 1 30 31 32 33 0 0 34 35 36 0 0 0 0 0 0 11 26 4
 0 1 29 0 1 37 15 0 0 12 29 54 38 39 0 0 0 0 0 0 1e3 1e-8 26 40 18 1 0 3 1 41 42
 43 44 0 0 45 46 47 0 0 0 0 0 0 11 37 3 0 1 40 0 1 48 26 0 0 12 40 54 49 50 0 0
 0 0 0 0 1e3 1e-8 37 51 29 1 0 3 1 52 53 54 55 0 0 56 57 58 0 0 0 0 0 0 11 48 2
 0 1 51 0 1 59 37 0 0 12 51 54 60 61 0 0 0 0 0 0 1e3 1e-8 48 62 40 1 0 3 1 63 64
 65 66 0 0 67 68 69 0 0 0 0 0 0 11 59 1 0 1 62 0 1 0 48 0 0 12 62 317 70 71 0 0
 0 0 0 0 1e3 1e-8 59 0 51 1 0 3 1 72 73 74 75 0 0 76 77 78 0 0 0 0 0 0 81 255 1
 70 317 79 62 80 0 0 0 81 70 11 CI9 list_type0 0 1 uI10 notransmit0 0 1 lCCCDCCD
I12 finger_index0 0 1 dI12 finger_block1012 0 CZ71 0 4 T62 0 0 5 20 1 82 82 13 2
55 72 3 0 62 0 83 0 0 76 83 50 255 73 238 0 83 0 0 0 -.26595161050273 -.05873138
20123529 0 0 0 1 .0523359562429441 -.998629534754574 0 30 255 74 237 0 84 85 0 0
 +.001733758853025365 .10306305875647 0 -.965925826289068 .25881904510252 0 29 2
55 75 204 0 86 87 0 .001733758853025365 .10306305875647 0 19 8 CCCCCCCA5 owner12
 0 Z76 1 0 62 0 0 72 V0 16 255 77 152 88 ?89 0 90 91 0 0 62 18 255 78 148 0 92 0
 93 94 ?62 17 255 92 0 95 89 96 78 97 90 0 98 +18 93 144 0 96 78 99 100 ?62 29 9
4 172 0 78 0 100 .01294095225512604 .0482962913144534 0 29 100 173 0 93 94 101 -
.01294095225512602 -.0482962913144535 0 29 101 174 0 99 100 102 .064194989641733
3 -.068964804653131 0 18 99 140 0 103 93 104 101 ?62 29 102 175 0 104 101 105 .0
827412971883975 -.0582570889985908 0 18 104 136 0 106 99 107 102 ?62 29 105 176
 0 107 102 108 .0917629534974614 -.0245878092847395 0 18 107 132 0 109 104 110 1
05 ?62 29 108 177 0 111 105 112 .1007846098065254 .00908147042911182 0 18 111 12
5 0 113 110 114 108 ?62 29 112 178 0 110 108 115 .0900768941519854 .027627777975
77605 0 18 110 128 0 116 107 111 112 ?62 29 115 179 0 117 112 118 .4392800744799
04 -.0949449675257542 0 18 117 13 0 119 120 121 115 ?62 29 118 180 0 121 115 122
 .427900187638794 -.13741528340116 0 18 121 9 0 123 117 124 118 ?62 29 122 181 0
 124 118 125 -.03882285676537805 -.1448888739433602 0 18 124 5 0 126 121 127 122
 ?62 29 125 182 0 127 122 128 .0388228567653781 .1448888739433602 0 18 127 2 0 1
29 124 0 125 ?62 29 128 183 0 120 125 130 .1313152746705998 .0786945580432518 0
 18 120 22 0 131 132 117 128 ?62 29 130 184 0 133 128 134 .0830189833561464 .091
6355102983778 0 18 133 29 0 135 136 132 130 ?62 29 134 185 0 136 130 137 .080430
7929051212 .0819762520354871 0 18 136 33 0 138 139 133 134 ?62 29 137 186 0 132
 134 140 .1287270842195746 .0690352997803611 0 18 132 25 0 141 133 120 137 ?62 2
9 140 187 0 139 137 142 .0769632751990701 -.1241498654774544 0 18 139 41 0 143 1
44 136 140 ?62 29 142 188 0 145 140 146 .0286669838846167 -.1112089132223282 0 1
8 145 48 0 147 148 144 142 ?62 29 146 189 0 148 142 149 .02607879343359135 -.120
868171485219 0 18 148 52 0 150 151 145 146 ?62 29 149 190 0 144 146 152 .0743750
847480449 -.133809123740345 0 18 144 44 0 153 145 139 149 ?62 29 152 191 0 151 1
49 154 -.1109103539848164 .0297183397824815 0 18 151 60 0 155 156 148 152 ?62 29
 154 192 0 157 152 158 -.1044398778572534 .0538664854397082 0 18 157 67 0 159 16
0 156 154 ?62 29 158 193 0 160 154 161 -.114099136120144 .0564546758907334 0 18
 160 71 0 162 163 157 158 ?62 29 161 194 0 163 158 164 -.120569612247707 .032306
5302335067 0 18 163 75 0 165 166 160 161 ?62 29 164 195 0 166 161 167 -.12704008
83752702 .00815838457628003 0 18 166 79 0 168 169 163 164 ?62 29 167 196 0 156 1
64 170 -.1173808301123794 .00557019412525482 0 18 156 63 0 171 157 151 167 ?62 2
9 170 197 0 169 167 172 -.0492893218813475 -.0903205840474246 0 18 169 87 0 173
 174 166 170 ?62 29 172 198 0 175 170 176 -.0975856131958009 -.0773796317922986
 0 18 175 94 0 177 178 174 172 ?62 29 176 199 0 178 172 179 -.100173803646826 -.
0870388900551892 0 18 178 98 0 180 181 175 176 ?62 29 179 200 0 174 176 182 -.05
18775123323727 -.0999798423103152 0 18 174 90 0 183 175 169 179 ?62 29 182 201 0
 181 179 184 .00432194930405056 .1127223170193606 0 18 181 106 0 185 86 178 182
 ?62 29 184 202 0 186 182 87 -.04397434201040285 .1256632692744866 0 18 186 113
 0 187 114 86 184 ?62 29 87 203 0 114 184 75 -.0465625324614281 .116004011011596
 0 18 114 117 0 188 111 186 87 ?62 17 188 0 189 187 190 114 191 84 0 192 +15 255
 189 107 0 190 83 0 17 187 0 189 185 188 186 192 193 0 194 +17 190 0 189 188 185
 86 195 196 0 0 +17 191 0 0 0 0 86 188 84 0 190 -16 84 121 197 ?188 198 193 74 0
 0 62 17 192 0 0 0 0 114 187 193 0 0 -16 193 118 199 ?187 84 200 85 0 0 62 81 1
 199 288 201 193 0 0 197 202 203 16 200 114 202 ?185 193 196 204 0 0 62 30 85 23
6 0 193 204 74 0 +-.0465625324614281 .116004011011596 0 .2588190451025195 .96592
5826289069 0 30 204 235 0 200 205 85 0 +-.04397434201040285 .1256632692744866 0
 .965925826289068 -.258819045102521 0 30 205 234 0 196 206 204 0 +.0043219493040
50565 .1127223170193606 0 -.25881904510252 -.965925826289069 0 16 196 110 207 ?1
90 200 208 205 0 0 62 30 206 233 0 208 209 205 0 +-.0518775123323727 -.099979842
3103152 0 -.965925826289069 .25881904510252 0 16 208 102 210 ?180 196 211 206 0
 0 62 30 209 232 0 211 212 206 0 +-.100173803646826 -.0870388900551892 0 .258819
045102522 .965925826289068 0 16 211 99 213 ?177 208 214 209 0 0 62 30 212 231 0
 214 215 209 0 +-.0975856131958009 -.0773796317922986 0 .965925826289068 -.25881
90451025205 0 16 214 95 216 ?173 211 217 212 0 0 62 30 215 230 0 217 218 212 0 +
-.0492893218813475 -.0903205840474246 0 -.258819045102521 -.965925826289068 0 16
 217 91 219 ?220 214 221 215 0 0 62 30 218 229 0 221 222 215 0 +-.11738083011237
94 .00557019412525482 0 -.965925826289068 .25881904510252 0 16 221 83 223 ?168 2
17 224 218 0 0 62 30 222 228 0 224 225 218 0 +-.1270400883752702 .00815838457628
003 0 .2588190451025225 .965925826289068 0 16 224 80 226 ?165 221 227 222 0 0 62
 30 225 227 0 227 228 222 0 +-.120569612247707 .0323065302335067 0 .258819045102
52 .965925826289068 0 16 227 76 229 ?162 224 230 225 0 0 62 30 228 226 0 230 231
 225 0 +-.114099136120144 .0564546758907334 0 .965925826289068 -.258819045102521
5 0 16 230 72 232 ?159 227 233 228 0 0 62 30 231 225 0 233 234 228 0 +-.10443987
78572534 .0538664854397082 0 -.2588190451025205 -.965925826289068 0 16 233 68 23
5 ?155 230 236 231 0 0 62 30 234 224 0 236 237 231 0 +-.1109103539848164 .029718
33978248155 0 -.258819045102521 -.965925826289068 0 16 236 64 238 ?239 233 240 2
34 0 0 62 30 237 223 0 240 241 234 0 +.0743750847480449 -.133809123740345 0 -.96
5925826289069 .25881904510252 0 16 240 56 242 ?150 236 243 237 0 0 62 30 241 222
 0 243 244 237 0 +.02607879343359135 -.120868171485219 0 .2588190451025335 .9659
25826289065 0 16 243 53 245 ?147 240 246 241 0 0 62 30 244 221 0 246 247 241 0 +
.0286669838846167 -.1112089132223282 0 .965925826289068 -.25881904510252 0 16 24
6 49 248 ?143 243 249 244 0 0 62 30 247 220 0 249 250 244 0 +.0769632751990701 -
.1241498654774544 0 -.2588190451025205 -.965925826289068 0 16 249 45 251 ?252 24
6 253 247 0 0 62 30 250 219 0 253 254 247 0 +.1287270842195746 .0690352997803611
 0 -.965925826289069 .25881904510252 0 16 253 37 255 ?138 249 256 250 0 0 62 30
 254 218 0 256 257 250 0 +.0804307929051212 .0819762520354871 0 .258819045102518
5 .965925826289069 0 16 256 34 258 ?135 253 259 254 0 0 62 30 257 217 0 259 260
 254 0 +.0830189833561464 .0916355102983778 0 .965925826289068 -.258819045102520
5 0 16 259 30 261 ?131 256 262 257 0 0 62 30 260 216 0 262 263 257 0 +.131315274
6705998 .0786945580432518 0 -.2588190451025235 -.965925826289068 0 16 262 26 264
 ?265 259 266 260 0 0 62 31 255 263 215 0 267 268 260 0 +-28421709430404e-30 426
32564145606e-30 0 0 0 1 1 0 0 .15 16 267 6 269 ?126 270 271 263 0 0 62 134 255 2
68 214 0 270 272 263 0 +273 274 16 270 10 275 ?123 266 267 268 0 0 62 31 272 213
 0 266 276 268 0 +.224683044957691 -.0602036404494242 0 0 0 1 1 0 0 .21739099541
3283 136 255 273 3 8 3 6 6 FFF1 277 278 279 135 255 274 1 0 45 255 24 277 -.0388
2285676537805 -.1448888739433602 0 -.00156541188373058 -.1535519313395045 0 .069
0199184045682 -.176563193765256 0 .177623484197547 -.1368742899507942 0 .2763286
694196855 -.1485372900324236 0 .366370231254311 -.1627092867052205 0 .4108204158
345815 -.145693250774567 0 .427900187638794 -.1374152834011602 0 127 255 6 278 4
 1 1 1 1 4 128 255 6 279 0 .246005326011699 .45167613575305 .700427934472251 .87
9314331934879 1 16 266 14 280 ?119 262 270 272 0 0 62 134 276 212 0 271 281 272
 0 +282 283 16 271 17 284 ?285 267 0 276 0 0 62 31 281 211 0 198 286 276 0 -.086
1575982059234 .01300076637517386 0 0 0 1 1 0 0 .0151429967006854 136 282 3 9 3 7
 6 FFF1 287 288 289 135 283 1 0 45 27 287 .439280074479904 -.0949449675257542 0
 .431428519740024 -.0831476767126053 0 .4067759998620395 -.0523751675552135 0 .3
474765936828175 -.011174627164572 0 .274767936245041 .03554001711155475 0 .20552
92770550655 .0859295768772112 0 .1266707435114322 .1234075028618306 0 .072366597
4194695 .1411822959233124 0 .0388228567653781 .1448888739433602 0 127 7 288 4 1
 1 1 1 1 4 128 7 289 0 .0896823853188112 .2482534265834285 .4488544609233775 .64
0927962733817 .787423716368032 1 16 198 129 290 ?113 291 84 281 0 0 62 30 286 21
0 0 291 292 281 0 -.0917629534974615 -.0245878092847395 0 .258819045102522 .9659
25826289068 0 16 291 133 293 ?109 294 198 286 0 0 62 30 292 209 0 294 295 286 0
 -.0827412971883975 -.0582570889985908 0 .2588190451025195 .965925826289069 0 16
 294 137 296 ?106 297 291 292 0 0 62 31 295 208 0 297 298 292 0 -.06811428558779
53 -.0543377930525288 0 0 0 1 .866025403784438 -.5 0 .0151429967006854 16 297 14
1 299 ?103 300 294 295 0 0 62 30 298 207 0 300 301 295 0 --.01294095225512606 -.
0482962913144535 0 .965925826289068 -.258819045102521 0 16 300 145 302 ?96 90 29
7 298 0 0 62 31 301 206 0 90 91 298 0 -25484527512588e-30 -248472003263831e-31 0
 0 0 1 1 0 0 .05 16 90 149 303 ?92 77 300 301 0 0 62 30 91 205 0 77 0 301 0 -.09
00768941519854 .02762777797577605 0 -.965925826289069 .25881904510252 0 81 1 303
 281 201 90 0 0 88 302 304 80 255 1 201 305 306 9000 1 1 1 1 1 1 1 1 0 FFFFTFTFF
FFFFF3 81 1 88 280 201 77 0 0 0 303 307 81 1 302 282 201 300 0 0 303 299 308 84
 255 32 304 27b0b04cfe775cf3743818aa6e0745c181 1 299 283 201 297 0 0 302 296 309
 84 32 308 8a854fefdbc11694644f8626a24a456181 1 296 284 201 294 0 0 299 293 310
 84 32 309 ffd42c14116a0af0a2351c321a573be881 1 293 285 201 291 0 0 296 290 311
 84 32 310 84079ef64c32f93a19fff63ad0cb11d081 1 290 286 201 198 0 0 293 197 312
 84 32 311 9bf4a0a3edbf407b6819130cea4fce8781 1 197 287 201 84 0 0 290 199 313 8
4 32 312 ce4c257ac2c3a08ceb83674cbcd8c70d84 32 313 1f6d03990d1e72c776ff9d5f3b2b5
b2884 32 307 d48f0bee73b0a7034a79367112f5c93d79 255 15 306 UGS/ObjectState17 96
 0 95 92 103 93 314 300 0 97 +15 95 153 0 89 83 315 17 103 0 95 96 106 99 316 29
7 0 314 +17 314 0 0 0 0 99 96 300 0 0 -17 97 0 0 0 0 93 92 90 0 0 -17 106 0 95 1
03 109 104 317 294 0 316 +17 316 0 0 0 0 104 103 297 0 0 -17 109 0 95 106 113 10
7 318 291 0 317 +17 317 0 0 0 0 107 106 294 0 0 -17 113 0 95 109 89 111 116 198
 0 318 +17 318 0 0 0 0 111 109 291 0 0 -17 89 0 95 113 92 110 98 77 0 0 +17 116
 0 0 0 0 110 113 198 0 89 -17 98 0 0 0 0 78 89 77 0 0 -14 255 83 124 319 ?0 0 95
 72 73 -0 0 0 0 72 15 315 19 0 285 83 320 17 285 0 315 126 119 127 321 271 0 0 +
15 320 23 0 265 83 322 17 265 0 320 138 131 132 323 262 0 0 +15 322 42 0 252 83
 324 17 252 0 322 150 143 144 325 249 0 0 +15 324 61 0 239 83 326 17 239 0 324 1
68 155 156 327 236 0 0 +15 326 88 0 220 83 189 17 220 0 326 180 173 174 328 217
 0 0 +17 180 0 326 177 220 178 183 208 0 329 +17 173 0 326 220 177 169 330 214 0
 328 +17 328 0 0 0 0 169 220 217 0 0 -17 177 0 326 173 180 175 329 211 0 330 +17
 330 0 0 0 0 175 173 214 0 0 -17 329 0 0 0 0 178 177 211 0 0 -17 183 0 0 0 0 174
 180 208 0 220 -17 168 0 324 165 239 166 171 221 0 331 +17 155 0 324 239 159 151
 332 233 0 327 +17 327 0 0 0 0 151 239 236 0 0 -17 159 0 324 155 162 157 333 230
 0 332 +17 332 0 0 0 0 157 155 233 0 0 -17 162 0 324 159 165 160 334 227 0 333 +
17 333 0 0 0 0 160 159 230 0 0 -17 165 0 324 162 168 163 331 224 0 334 +17 334 0
 0 0 0 163 162 227 0 0 -17 331 0 0 0 0 166 165 224 0 0 -17 171 0 0 0 0 156 168 2
21 0 239 -17 150 0 322 147 252 148 153 240 0 335 +17 143 0 322 252 147 139 336 2
46 0 325 +17 325 0 0 0 0 139 252 249 0 0 -17 147 0 322 143 150 145 335 243 0 336
 +17 336 0 0 0 0 145 143 246 0 0 -17 335 0 0 0 0 148 147 243 0 0 -17 153 0 0 0 0
 144 150 240 0 252 -17 138 0 320 135 265 136 141 253 0 337 +17 131 0 320 265 135
 120 338 259 0 323 +17 323 0 0 0 0 120 265 262 0 0 -17 135 0 320 131 138 133 337
 256 0 338 +17 338 0 0 0 0 133 131 259 0 0 -17 337 0 0 0 0 136 135 256 0 0 -17 1
41 0 0 0 0 132 138 253 0 265 -17 126 0 315 123 285 124 129 267 0 339 +17 119 0 3
15 285 123 117 340 266 0 321 +17 321 0 0 0 0 117 285 271 0 0 -17 123 0 315 119 1
26 121 339 270 0 340 +17 340 0 0 0 0 121 119 266 0 0 -17 339 0 0 0 0 124 123 270
 0 0 -17 129 0 0 0 0 127 126 267 0 285 -81 1 319 316 341 83 342 0 0 0 343 80 1 3
41 0 344 8001 0 0 0 0 3 5 0 0 0 FFFFTFTFFFFFFF2 81 1 342 313 201 83 0 319 284 0
 345 83 255 3 343 .5019608 .6352941 .7058824 81 1 284 312 201 271 0 0 269 342 34
6 84 32 345 d0044e234bde7a555b521583a29df73481 1 269 311 201 267 0 0 275 284 347
 84 32 346 51714458eb043bb43fee5ba9bb3cec7c81 1 275 310 201 270 0 0 280 269 348
 84 32 347 6e015723790afae76ae28812771cfbf481 1 280 309 201 266 0 0 264 275 349
 84 32 348 79654f9e306f07955c8cd6fcd0376ee181 1 264 308 201 262 0 0 261 280 350
 84 32 349 1a57aaec32f1f48c561541bf2f7596e481 1 261 307 201 259 0 0 258 264 351
 84 32 350 740d3e3878b3964abbfa0318c6e4ab0a81 1 258 306 201 256 0 0 255 261 352
 84 32 351 347e1c2957eadadb0c1d40285042d61d81 1 255 305 201 253 0 0 251 258 353
 84 32 352 ec7298f9883d18e4cc8e789237187ad981 1 251 304 201 249 0 0 248 255 354
 84 32 353 ffcc3da460abbedd0749790c9350858381 1 248 303 201 246 0 0 245 251 355
 84 32 354 7dd1b996852305bb82a37a6dc9da685381 1 245 302 201 243 0 0 242 248 356
 84 32 355 8d45ea6742dce508144c87834f346e6a81 1 242 301 201 240 0 0 238 245 357
 84 32 356 2ee39236e46f6c941a4e6adaaf131bb781 1 238 300 201 236 0 0 235 242 358
 84 32 357 a7f9e9af2b274903fe119bc97023e44681 1 235 299 201 233 0 0 232 238 359
 84 32 358 aa6cdaf69a8dd2aafc62526ed2c51e9881 1 232 298 201 230 0 0 229 235 360
 84 32 359 376fcb4720796ef0894f13c28ae8481581 1 229 297 201 227 0 0 226 232 361
 84 32 360 9b2d419aec6dc7edbbbe32b1eaf21ec281 1 226 296 201 224 0 0 223 229 362
 84 32 361 d8a490a3c7eccf152c14c091eec54f9b81 1 223 295 201 221 0 0 219 226 363
 84 32 362 d10de77fb3d58e14a7cd97833501c50d81 1 219 294 201 217 0 0 216 223 364
 84 32 363 3f3dd115a79e9933b990bf2b09e04cea81 1 216 293 201 214 0 0 213 219 365
 84 32 364 4aa77310acb3751dd55bc2631dda1e5681 1 213 292 201 211 0 0 210 216 366
 84 32 365 ad45d32024c1f9dc7e10a72c5308edc981 1 210 291 201 208 0 0 207 213 367
 84 32 366 d69f61dc7728a154e617c3de0d0fa9b581 1 207 290 201 196 0 0 202 210 368
 84 32 367 bc119e9858adbff17533f74063eb9da981 1 202 289 201 200 0 0 199 207 369
 84 32 368 1ffa6e30559092a38959c5b8d4a67d3584 32 369 04cfeb8bdfc6e22e865871878fe
9137779 15 344 SDL/TYSA_COLOUR17 185 0 189 190 187 181 194 200 0 195 +17 194 0 0
 0 0 186 185 200 0 0 -17 195 0 0 0 0 181 190 196 0 0 -84 32 203 49b3420b1b513cfe
947b41e4aa24706e18 86 109 0 191 186 181 75 ?62 74 4 CI16 index_map_offset0 0 1 d
CCZ20 82 5 0 0 342 370 80 319 70 0 0 0 0 0 0 0 0 0 0 0 0 0 0 0 81 2 370 314 371
 62 0 80 0 0 372 373 81 1 80 315 374 62 370 70 0 0 375 80 1 374 376 377 9000 0 0
 0 0 3 5 0 0 0 FFTFFFFFFFFFFF1 82 255 1 375 15 79 7 377 body_id80 2 371 378 379
 8004 0 0 0 0 3 5 0 0 0 FFTFFFFFFFFFFF2 3 83 1 372 7830.64 84 8 373 Kg/Cu M 79 1
6 379 SDL/TYSA_DENSITY80 1 79 380 381 9000 0 0 0 0 3 5 0 0 0 FFTFFFFFFFFFFF1 82
 1 81 171 79 24 381 UG2/BODY_COLOR_ATTRIBUTE81 1 60 54 79 51 382 0 0 0 383 70 61
 0 4 T51 0 0 4 20 1 384 384 13 63 3 0 51 0 385 0 0 67 385 50 64 34 0 385 0 0 0 +
.0468466966119469 -.1206353677600506 0 0 0 -1 -.2588190451025205 -.9659258262890
68 0 30 65 33 0 386 387 0 0 +.0286669838846167 -.1112089132223282 0 .96592582628
9068 -.25881904510252 0 29 66 29 0 388 389 0 .0286669838846167 -.111208913222328
2 0 19 67 1 0 51 0 0 63 V0 16 68 14 390 ?391 0 392 393 0 0 51 18 69 13 0 391 0 3
94 395 ?51 17 391 0 396 397 398 69 399 68 0 400 +18 394 9 0 398 69 401 402 ?51 2
9 395 26 0 69 0 402 .02607879343359135 -.120868171485219 0 29 402 27 0 394 395 3
89 .0743750847480449 -.133809123740345 0 29 389 28 0 401 402 66 .076963275199070
1 -.1241498654774544 0 18 401 5 0 403 394 388 389 ?51 17 403 0 396 398 397 401 4
04 386 0 405 +18 388 2 0 404 401 0 66 ?51 17 404 0 0 0 0 388 403 386 0 397 -16 3
86 6 406 ?403 392 407 65 0 0 51 17 397 0 396 403 391 388 400 407 0 0 +15 396 19
 0 397 385 0 17 400 0 0 0 0 69 397 407 0 0 -16 407 17 408 ?397 386 0 409 0 0 51
 81 1 408 50 201 407 0 0 406 410 411 30 409 30 0 407 0 393 0 +.02607879343359135
 -.120868171485219 0 .2588190451025335 .965925826289065 0 30 393 31 0 68 409 387
 0 +.0743750847480449 -.133809123740345 0 -.965925826289069 .25881904510252 0 30
 387 32 0 392 393 65 0 +.0769632751990701 -.1241498654774544 0 -.258819045102520
5 -.965925826289068 0 16 392 10 412 ?398 68 386 387 0 0 51 81 1 412 48 201 392 0
 0 390 406 413 17 398 0 396 391 403 394 405 392 0 399 +17 405 0 0 0 0 401 398 39
2 0 0 -17 399 0 0 0 0 394 391 68 0 0 -81 1 390 47 201 68 0 0 0 412 414 81 1 406
 49 201 386 0 0 412 408 415 84 32 413 7dd1b996852305bb82a37a6dc9da685384 32 415
 8d45ea6742dce508144c87834f346e6a84 32 414 a7f9e9af2b274903fe119bc97023e44681 1
 410 51 201 385 0 416 408 0 417 84 32 411 2ee39236e46f6c941a4e6adaaf131bb714 385
 20 416 ?0 0 396 63 64 +0 0 0 0 63 81 1 416 53 341 385 410 0 0 0 418 84 32 417 3
a7d3549d9f1ff23106ca0c92f9f6c0b83 3 418 .5019608 .6352941 .7058824 74 20 384 4 0
 0 410 382 416 60 0 0 0 0 0 0 0 0 0 0 0 0 0 0 0 0 81 2 382 52 371 51 0 60 0 0 41
9 420 83 1 419 7830.64 84 8 420 Kg/Cu M 82 1 383 171 81 1 49 54 79 40 421 0 0 0
 422 70 50 0 4 T40 0 0 4 20 1 423 423 13 52 3 0 40 0 424 0 0 56 424 50 53 34 0 4
24 0 0 0 +-.0794059004684706 -.0868060863300209 0 0 0 -1 -.2588190451025205 -.96
5925826289068 0 30 54 33 0 425 426 0 0 +-.0975856131958009 -.0773796317922986 0
 .965925826289068 -.2588190451025205 0 29 55 29 0 427 428 0 -.0975856131958009 -
.0773796317922986 0 19 56 1 0 40 0 0 52 V0 16 57 14 429 ?430 0 431 432 0 0 40 18
 58 13 0 430 0 433 434 ?40 17 430 0 435 436 437 58 438 57 0 439 +18 433 9 0 437
 58 440 441 ?40 29 434 26 0 58 0 441 -.100173803646826 -.0870388900551892 0 29 4
41 27 0 433 434 428 -.0518775123323727 -.0999798423103152 0 29 428 28 0 440 441
 55 -.0492893218813475 -.0903205840474246 0 18 440 5 0 442 433 427 428 ?40 17 44
2 0 435 437 436 440 443 425 0 444 +18 427 2 0 443 440 0 55 ?40 17 443 0 0 0 0 42
7 442 425 0 436 -16 425 6 445 ?442 431 446 54 0 0 40 17 436 0 435 442 430 427 43
9 446 0 0 +15 435 19 0 436 424 0 17 439 0 0 0 0 58 436 446 0 0 -16 446 17 447 ?4
36 425 0 448 0 0 40 81 1 447 50 201 446 0 0 445 449 450 30 448 30 0 446 0 432 0
 +-.100173803646826 -.0870388900551892 0 .258819045102522 .965925826289068 0 30
 432 31 0 57 448 426 0 +-.0518775123323727 -.0999798423103152 0 -.96592582628906
9 .25881904510252 0 30 426 32 0 431 432 54 0 +-.0492893218813475 -.0903205840474
246 0 -.258819045102521 -.965925826289068 0 16 431 10 451 ?437 57 425 426 0 0 40
 81 1 451 48 201 431 0 0 429 445 452 17 437 0 435 430 442 433 444 431 0 438 +17
 444 0 0 0 0 440 437 431 0 0 -17 438 0 0 0 0 433 430 57 0 0 -81 1 429 47 201 57
 0 0 0 451 453 81 1 445 49 201 425 0 0 451 447 454 84 32 452 4aa77310acb3751dd55
bc2631dda1e5684 32 454 ad45d32024c1f9dc7e10a72c5308edc984 32 453 bc119e9858adbff
17533f74063eb9da981 1 449 51 201 424 0 455 447 0 456 84 32 450 d69f61dc7728a154e
617c3de0d0fa9b514 424 20 455 ?0 0 435 52 53 +0 0 0 0 52 81 1 455 53 341 424 449
 0 0 0 457 84 32 456 e8d572700db0583e4f299737069c195083 3 457 .5019608 .6352941
 .7058824 74 20 423 4 0 0 449 421 455 49 0 0 0 0 0 0 0 0 0 0 0 0 0 0 0 0 81 2 42
1 52 371 40 0 49 0 0 458 459 83 1 458 7830.64 84 8 459 Kg/Cu M 82 1 422 171 81 1
 38 54 79 29 460 0 0 0 461 70 39 0 4 T29 0 0 4 20 1 462 462 13 41 3 0 29 0 463 0
 0 45 463 50 42 34 0 463 0 0 0 +.1008881132293536 .0810499447691086 0 0 0 1 .258
81904510252 .965925826289069 0 30 43 33 0 464 465 0 0 +.0804307929051212 .081976
2520354871 0 .965925826289069 -.25881904510252 0 29 44 29 0 466 467 0 .080430792
9051212 .0819762520354871 0 19 45 1 0 29 0 0 41 V0 16 46 14 468 ?469 0 470 471 0
 0 29 18 47 13 0 469 0 472 473 ?29 17 469 0 474 475 476 47 477 46 0 478 +18 472
 9 0 476 47 479 480 ?29 29 473 26 0 47 0 480 .0830189833561464 .0916355102983778
 0 29 480 27 0 472 473 467 .1313152746705998 .0786945580432518 0 29 467 28 0 479
 480 44 .1287270842195746 .0690352997803611 0 18 479 5 0 481 472 466 467 ?29 17
 481 0 474 476 475 479 482 464 0 483 +18 466 2 0 482 479 0 44 ?29 17 482 0 0 0 0
 466 481 464 0 475 -16 464 6 484 ?481 470 485 43 0 0 29 17 475 0 474 481 469 466
 478 485 0 0 +15 474 19 0 475 463 0 17 478 0 0 0 0 47 475 485 0 0 -16 485 17 486
 ?475 464 0 487 0 0 29 81 1 486 50 201 485 0 0 484 488 489 30 487 30 0 485 0 471
 0 +.0830189833561464 .0916355102983778 0 -.2588190451025185 -.965925826289069 0
 30 471 31 0 46 487 465 0 +.1313152746705998 .0786945580432518 0 -.9659258262890
68 .2588190451025205 0 30 465 32 0 470 471 43 0 +.1287270842195746 .069035299780
3611 0 .2588190451025235 .965925826289068 0 16 470 10 490 ?476 46 464 465 0 0 29
 81 1 490 48 201 470 0 0 468 484 491 17 476 0 474 469 481 472 483 470 0 477 +17
 483 0 0 0 0 479 476 470 0 0 -17 477 0 0 0 0 472 469 46 0 0 -81 1 468 47 201 46
 0 0 0 490 492 81 1 484 49 201 464 0 0 490 486 493 84 32 491 0f2feda2fe01406ffdf
2cfeb60e1ff6584 32 493 bd6dab9ce1cdde26f7dbd43c23f732a284 32 492 c0dd8715043fe09
d590178eeaf5c48d981 1 488 51 201 463 0 494 486 0 495 84 32 489 c44aa6121f250b98b
4d7551e59a0b9b314 463 20 494 ?0 0 474 41 42 +0 0 0 0 41 81 1 494 53 341 463 488
 0 0 0 496 84 32 495 f965ab55d992c11a34c5598c3eb6d97183 3 496 .5019608 .6352941
 .7058824 74 20 462 4 0 0 488 460 494 38 0 0 0 0 0 0 0 0 0 0 0 0 0 0 0 0 81 2 46
0 52 371 29 0 38 0 0 497 498 83 1 497 7830.64 84 8 498 Kg/Cu M 82 1 461 171 81 1
 27 54 79 18 499 0 0 0 500 70 28 0 4 T18 0 0 4 20 1 501 501 13 30 3 0 18 0 502 0
 0 34 502 50 31 34 0 502 0 0 0 +-.0261052121371956 .1150777037452174 0 0 0 1 .25
881904510252 .965925826289068 0 30 32 33 0 503 504 0 0 +-.0465625324614281 .1160
04011011596 0 .965925826289068 -.25881904510252 0 29 33 29 0 505 506 0 -.0465625
324614281 .116004011011596 0 19 34 1 0 18 0 0 30 V0 16 35 14 507 ?508 0 509 510
 0 0 18 18 36 13 0 508 0 511 512 ?18 17 508 0 513 514 515 36 516 35 0 517 +18 51
1 9 0 515 36 518 519 ?18 29 512 26 0 36 0 519 -.04397434201040285 .1256632692744
866 0 29 519 27 0 511 512 506 .004321949304050565 .1127223170193606 0 29 506 28
 0 518 519 33 .00173375885302536 .10306305875647 0 18 518 5 0 520 511 505 506 ?1
8 17 520 0 513 515 514 518 521 503 0 522 +18 505 2 0 521 518 0 33 ?18 17 521 0 0
 0 0 505 520 503 0 514 -16 503 6 523 ?520 509 524 32 0 0 18 17 514 0 513 520 508
 505 517 524 0 0 +15 513 19 0 514 502 0 17 517 0 0 0 0 36 514 524 0 0 -16 524 17
 525 ?514 503 0 526 0 0 18 81 1 525 50 201 524 0 0 523 527 528 30 526 30 0 524 0
 510 0 +-.04397434201040285 .1256632692744866 0 -.2588190451025195 -.96592582628
9069 0 30 510 31 0 35 526 504 0 +.004321949304050565 .1127223170193606 0 -.96592
5826289068 .258819045102521 0 30 504 32 0 509 510 32 0 +.001733758853025365 .103
06305875647 0 .25881904510252 .965925826289069 0 16 509 10 529 ?515 35 503 504 0
 0 18 81 1 529 48 201 509 0 0 507 523 530 17 515 0 513 508 520 511 522 509 0 516
 +17 522 0 0 0 0 518 515 509 0 0 -17 516 0 0 0 0 511 508 35 0 0 -81 1 507 47 201
 35 0 0 0 529 531 81 1 523 49 201 503 0 0 529 525 532 84 32 530 7b0df20e383b3b45
3258d68330577ff484 32 532 1439f529db0609918cb5efd1ce61a8e284 32 531 231e1e61c44e
c4691b44b4bcc0d98c1781 1 527 51 201 502 0 533 525 0 534 84 32 528 9d4a3a3376f53d
1ada5aab4e88f4a1e314 502 20 533 ?0 0 513 30 31 +0 0 0 0 30 81 1 533 53 341 502 5
27 0 0 0 535 84 32 534 f60b3dcde65a179fb4267334c9227c5d83 3 535 .5019608 .635294
1 .7058824 74 20 501 4 0 0 527 499 533 27 0 0 0 0 0 0 0 0 0 0 0 0 0 0 0 0 81 2 4
99 52 371 18 0 27 0 0 536 537 83 1 536 7830.64 84 8 537 Kg/Cu M 82 1 500 171 81
 1 16 70 79 7 538 0 0 0 539 70 17 0 4 T7 0 0 4 20 1 540 540 13 19 3 0 7 0 541 0
 0 23 541 50 20 46 0 541 0 0 0 +-.1143457892766988 .02977613174424905 0 0 0 1 -.
258819045102521 -.965925826289068 0 30 21 45 0 542 543 0 0 +-.1109103539848164 .
0297183397824815 0 .2588190451025205 .965925826289068 0 29 22 39 0 544 545 0 -.1
109103539848164 .0297183397824815 0 19 23 1 0 7 0 0 19 V0 16 24 22 546 ?547 0 54
8 549 0 0 7 18 25 21 0 547 0 550 551 ?7 17 547 0 552 553 554 25 555 24 0 556 +18
 550 17 0 554 25 557 558 ?7 29 551 34 0 25 0 558 -.1173808301123794 .00557019412
525482 0 29 558 35 0 550 551 559 -.1270400883752702 .00815838457628003 0 29 559
 36 0 557 558 560 -.120569612247707 .0323065302335067 0 18 557 13 0 561 550 562
 559 ?7 29 560 37 0 562 559 545 -.114099136120144 .0564546758907334 0 18 562 9 0
 563 557 564 560 ?7 29 545 38 0 564 560 22 -.1044398778572534 .0538664854397082
 0 18 564 5 0 565 562 544 545 ?7 17 565 0 552 563 553 564 566 542 0 567 +18 544
 2 0 566 564 0 22 ?7 17 566 0 0 0 0 544 565 542 0 553 -16 542 6 568 ?565 569 570
 21 0 0 7 17 553 0 552 565 547 544 556 570 0 0 +15 552 27 0 553 541 0 17 556 0 0
 0 0 25 553 570 0 0 -16 570 25 571 ?553 542 0 572 0 0 7 81 1 571 66 201 570 0 0
 568 573 574 30 572 40 0 570 0 549 0 +-.1173808301123794 .00557019412525482 0 .2
58819045102521 .965925826289068 0 30 549 41 0 24 572 575 0 +-.1270400883752702 .
00815838457628003 0 .965925826289068 -.25881904510252 0 30 575 42 0 548 549 576
 0 +-.120569612247707 .03230653023350675 0 -.2588190451025225 -.965925826289068
 0 16 548 18 577 ?554 24 578 575 0 0 7 30 576 43 0 578 575 543 0 +-.114099136120
144 .0564546758907334 0 -.25881904510252 -.965925826289068 0 16 578 14 579 ?561
 548 569 576 0 0 7 30 543 44 0 569 576 21 0 +-.1044398778572534 .053866485439708
2 0 -.965925826289068 .2588190451025215 0 16 569 10 580 ?563 578 542 543 0 0 7 8
1 1 580 64 201 569 0 0 579 568 581 17 563 0 552 561 565 562 567 569 0 582 +17 56
1 0 552 554 563 557 582 578 0 583 +17 567 0 0 0 0 564 563 569 0 0 -17 582 0 0 0
 0 562 561 578 0 0 -17 554 0 552 547 561 550 583 548 0 555 +17 583 0 0 0 0 557 5
54 548 0 0 -17 555 0 0 0 0 550 547 24 0 0 -81 1 579 63 201 578 0 0 577 580 584 8
1 1 568 65 201 542 0 0 580 571 585 84 32 581 4fb2a319ed6316a70b3a235853ebb99984
 32 585 524f3521f806f83e53a279fcb67f932581 1 577 62 201 548 0 0 546 579 586 84 3
2 584 bbdb387819c7cad571e4decce937faa881 1 546 61 201 24 0 0 0 577 587 84 32 586
 9b5c6116bbe6647668f4a9d288a41f9584 32 587 22dd9caf93a9b3fd1e43b0872e6c8cc381 1
 573 67 201 541 0 588 571 0 589 84 32 574 a7a3aa306c63f880265576e5214a36fb14 541
 28 588 ?0 0 552 19 20 +0 0 0 0 19 81 1 588 69 341 541 573 0 0 0 590 84 32 589 e
f4749e1a705efe615243dcc83ad941683 3 590 .5019608 .6352941 .7058824 74 20 540 4 0
 0 573 538 588 16 0 0 0 0 0 0 0 0 0 0 0 0 0 0 0 0 81 2 538 68 371 7 0 16 0 0 591
 592 83 1 591 7830.64 84 8 592 Kg/Cu M 82 1 539 171 81 1 5 91 79 3 593 0 0 0 594
 70 6 0 4 T3 0 0 4 20 1 595 595 13 8 3 0 3 0 596 0 0 12 596 50 9 63 0 596 0 0 0
 +.1 42632564145606e-30 0 0 0 1 -1 0 0 31 10 62 0 13 597 0 0 --28421709430404e-3
0 42632564145606e-30 0 0 0 1 1 0 0 .15 29 11 54 0 598 599 0 .0388228567653781 .1
448888739433602 0 19 12 1 0 3 0 0 8 V0 16 13 37 600 ?601 0 602 10 0 0 3 18 14 33
 0 603 0 604 599 ?3 17 603 0 0 0 0 14 601 13 0 605 -18 604 29 0 606 14 598 607 ?
3 29 599 53 0 14 607 11 -.03882285676537805 -.1448888739433602 0 29 607 52 0 604
 608 599 .427900187638794 -.1374152834011602 0 29 608 51 0 609 610 607 .43928007
4479895 -.0949449675257527 0 18 609 22 0 611 598 612 608 ?3 29 610 50 0 612 613
 608 -.5 .4 0 18 612 13 0 614 609 615 610 ?3 29 613 49 0 615 616 610 .7 .4 0 18
 615 9 0 617 612 618 613 ?3 29 616 48 0 619 620 613 .7 -.4 0 18 619 2 0 621 618
 0 616 ?3 29 620 47 0 618 0 616 -.5 -.4 0 18 618 5 0 622 615 619 620 ?3 17 622 0
 0 0 0 618 623 624 0 625 -17 623 0 626 627 625 619 622 624 0 0 +16 624 6 628 ?62
3 629 630 631 0 0 3 17 625 0 626 623 614 618 632 633 0 0 +15 626 19 0 625 596 63
4 17 614 0 626 625 627 612 617 635 0 632 +17 632 0 0 0 0 612 625 633 0 0 -16 633
 17 636 ?625 635 0 637 0 0 3 81 1 636 87 201 633 0 0 638 639 640 16 635 14 638 ?
614 630 633 641 0 0 3 30 637 55 0 633 0 631 0 --.5 -.4 0 0 1 0 30 631 56 0 624 6
37 642 0 -.7 -.4 0 -1 462592926927149e-31 0 30 642 57 0 630 631 641 0 -.7 .4 0 0
 -1 0 16 630 10 643 ?627 624 635 642 0 0 3 30 641 58 0 635 642 644 0 --.5 .4 0 1
 1387778780781446e-31 0 134 644 59 0 629 641 645 0 -646 647 16 629 26 648 ?649 6
50 624 644 0 0 3 31 645 60 0 650 644 597 0 -.224683044957691 -.0602036404494242
 0 0 0 1 1 0 0 .217390995413283 136 646 3 9 3 7 6 FFF1 651 652 653 135 647 1 0 4
5 27 651 .439280074479904 -.0949449675257542 0 .431428519740024 -.08314767671260
53 0 .4067759998620395 -.0523751675552135 0 .3474765936828175 -.011174627164572
 0 .274767936245041 .03554001711155475 0 .2055292770550655 .0859295768772112 0 .
1266707435114322 .1234075028618306 0 .0723665974194695 .1411822959233124 0 .0388
228567653781 .1448888739433602 0 127 7 652 4 1 1 1 1 1 4 128 7 653 0 .0896823853
188112 .2482534265834285 .4488544609233775 .640927962733817 .787423716368032 1 1
6 650 30 654 ?655 602 629 645 0 0 3 134 597 61 0 602 645 10 0 -656 657 16 602 34
 658 ?605 13 650 597 0 0 3 136 656 3 8 3 6 6 FFF1 659 660 661 135 657 1 0 45 24
 659 -.03882285676537805 -.1448888739433602 0 -.00156541188373058 -.153551931339
5045 0 .0690199184045682 -.176563193765256 0 .177623484197547 -.1368742899507942
 0 .2763286694196855 -.1485372900324236 0 .366370231254311 -.1627092867052205 0
 .4108204158345815 -.145693250774567 0 .427900187638794 -.1374152834011602 0 127
 6 660 4 1 1 1 1 4 128 6 661 0 .246005326011699 .45167613575305 .700427934472251
 .879314331934879 1 81 1 658 83 201 602 0 0 654 628 662 17 605 0 634 601 655 14
 606 602 0 0 +15 634 23 0 649 596 0 17 601 0 634 649 605 598 603 13 0 663 +17 65
5 0 634 605 649 604 611 650 0 0 +17 606 0 0 0 0 604 605 602 0 655 -17 649 0 634
 655 601 609 663 629 0 0 +17 611 0 0 0 0 609 655 650 0 649 -17 663 0 0 0 0 598 6
49 629 0 0 -18 598 25 0 601 604 609 11 ?3 14 596 40 664 ?0 0 626 8 9 +0 0 0 0 8
 81 1 664 90 341 596 639 0 0 0 665 81 1 639 88 201 596 0 664 636 0 666 83 3 665
 .5019608 .6352941 .7058824 84 32 666 4aa240e8c419e3f06bf92a52e998e23081 1 654 8
2 201 650 0 0 648 658 667 81 1 628 84 201 624 0 0 658 643 668 84 32 662 5b85d5fb
b5552662574d6298ea11172481 1 643 85 201 630 0 0 628 638 669 84 32 668 f36421f84b
f45ec503ef356ae34b7b5981 1 638 86 201 635 0 0 643 636 670 84 32 669 d7504fd0c0b8
e7aec8e47dcc8e06463384 32 670 6cd07d5827ddece51c33b1f90f49cfa081 1 648 81 201 62
9 0 0 600 654 671 84 32 667 f31147d4125ce6af0ff91ef94310095881 1 600 80 201 13 0
 0 0 648 672 84 32 671 19f79b853c7968e518661d4be071c9cf84 32 672 8e915361f9682f4
90873c44d0d0d093717 627 0 626 614 623 615 621 630 0 0 +17 621 0 0 0 0 619 627 63
0 0 623 -84 32 640 1e0ce38e082f65468497be4b42edbae017 617 0 0 0 0 615 614 635 0
 627 -74 20 595 4 0 0 639 593 664 5 0 0 0 0 0 0 0 0 0 0 0 0 0 0 0 0 81 2 593 89
 371 3 0 5 0 0 673 674 83 1 673 7830.64 84 8 674 Kg/Cu M 82 1 594 171 1 0 
