**ABCDEFGHIJKLMNOPQRSTUVWXYZabcdefghijklmnopqrstuvwxyz**************************
**PARASOLID !"#$%&'()*+,-./:;<=>?@[\]^_`{|}~0123456789**************************
**PART1;
MC=x64/Windows NT;
MC_MODEL=genuineintel family 6 model 10 stepping 5, intel(r) xeon(r) cpu           w3550  @ 3.07ghz;
MC_ID=133-7320;
OS=windows nt (x64);
OS_RELEASE=6.1 windows 7 ultimate (build 7601) service pack 1;
FRU=mdc_ugii_v7.0_djl_can_vrh;
APPL=unigraphics;
SITE=unknown;
USER=Afonin;
FORMAT=text;
GUISE=transmit;
KEY=ModelGeomComplexFormMultyEld2_ADFlow;
FILE=D:\MyFilesCur\MyPrgs\Ansys\Geom\ModelGeomComplexFormMultyEld2_ADFlow.x_t;
DATE=6-mar-2024;
**PART2;
SCH=SCH_2900123_28101;
USFLD_SIZE=0;
**PART3;
**END_OF_HEADER*****************************************************************
T51 : TRANSMIT FILE created by modeller version 290012323 SCH_2900123_28101_1300
6203 0 12 33 CCCCCCI4 mesh1006 0 I8 polyline1008 0 CCCCCCCDI5 owner1040 0 CCCCCC
I13 boundary_mesh1006 0 I17 boundary_polyline1008 0 CCCA16 index_map_offset0 0 1
 dA9 index_map82 0 A17 node_id_index_map82 0 A20 schema_embedding_map82 0 A5 chi
ld12 0 A14 lowest_node_id0 0 1 dZ1 92 2 3 0 0 0 0 0 0 1e3 1e-8 0 0 0 1 0 3 1 4 5
 6 7 0 0 8 9 10 0 0 0 0 0 0 81 255 1 2 92 11 1 12 0 0 0 13 70 11 CI9 list_type0
 0 1 uI10 notransmit0 0 1 lCCCDCCDI12 finger_index0 0 1 dI12 finger_block1012 0
 CZ3 0 4 T1 0 0 4 20 1 14 14 13 255 4 3 0 1 0 15 0 0 8 15 50 255 5 63 0 15 0 0 0
 +.1 42632564145606e-30 0 0 0 1 -1 0 0 31 255 6 62 0 9 16 0 0 --28421709430404e-
30 42632564145606e-30 0 0 0 1 1 0 0 .15 29 255 7 54 0 17 18 0 .0388228567653781
 .1448888739433602 0 19 8 CCCCCCCA5 owner12 0 Z8 1 0 1 0 0 4 V0 16 255 9 37 19 ?
20 0 21 6 0 0 1 18 255 10 33 0 22 0 23 18 ?1 17 255 22 0 0 0 0 10 20 9 0 24 -18
 23 29 0 25 10 17 26 ?1 29 18 53 0 10 26 7 -.03882285676537805 -.144888873943360
2 0 29 26 52 0 23 27 18 .427900187638794 -.1374152834011602 0 29 27 51 0 28 29 2
6 .439280074479895 -.0949449675257527 0 18 28 22 0 30 17 31 27 ?1 29 29 50 0 31
 32 27 -.5 .4 0 18 31 13 0 33 28 34 29 ?1 29 32 49 0 34 35 29 .7 .4 0 18 34 9 0
 36 31 37 32 ?1 29 35 48 0 38 39 32 .7 -.4 0 18 38 2 0 40 37 0 35 ?1 29 39 47 0
 37 0 35 -.5 -.4 0 18 37 5 0 41 34 38 39 ?1 17 41 0 0 0 0 37 42 43 0 44 -17 42 0
 45 46 44 38 41 43 0 0 +16 43 6 47 ?42 48 49 50 0 0 1 17 44 0 45 42 33 37 51 52
 0 0 +15 255 45 19 0 44 15 53 17 33 0 45 44 46 31 36 54 0 51 +17 51 0 0 0 0 31 4
4 52 0 0 -16 52 17 55 ?44 54 0 56 0 0 1 81 1 55 87 57 52 0 0 58 59 60 16 54 14 5
8 ?33 49 52 61 0 0 1 30 255 56 55 0 52 0 50 0 --.5 -.4 0 0 1 0 30 50 56 0 43 56
 62 0 -.7 -.4 0 -1 462592926927149e-31 0 30 62 57 0 49 50 61 0 -.7 .4 0 0 -1 0 1
6 49 10 63 ?46 43 54 62 0 0 1 30 61 58 0 54 62 64 0 --.5 .4 0 1 1387778780781446
e-31 0 134 255 64 59 0 48 61 65 0 -66 67 16 48 26 68 ?69 70 43 64 0 0 1 31 65 60
 0 70 64 16 0 -.224683044957691 -.0602036404494242 0 0 0 1 1 0 0 .21739099541328
3 136 255 66 3 9 3 7 6 FFF1 71 72 73 135 255 67 1 0 45 255 27 71 .43928007447990
4 -.0949449675257542 0 .431428519740024 -.0831476767126053 0 .4067759998620395 -
.0523751675552135 0 .3474765936828175 -.011174627164572 0 .274767936245041 .0355
4001711155475 0 .2055292770550655 .0859295768772112 0 .1266707435114322 .1234075
028618306 0 .0723665974194695 .1411822959233124 0 .0388228567653781 .14488887394
33602 0 127 255 7 72 4 1 1 1 1 1 4 128 255 7 73 0 .0896823853188112 .24825342658
34285 .4488544609233775 .640927962733817 .787423716368032 1 16 70 30 74 ?75 21 4
8 65 0 0 1 134 16 61 0 21 65 6 0 -76 77 16 21 34 78 ?24 9 70 16 0 0 1 136 76 3 8
 3 6 6 FFF1 79 80 81 135 77 1 0 45 24 79 -.03882285676537805 -.1448888739433602
 0 -.00156541188373058 -.1535519313395045 0 .0690199184045682 -.176563193765256
 0 .177623484197547 -.1368742899507942 0 .2763286694196855 -.1485372900324236 0
 .366370231254311 -.1627092867052205 0 .4108204158345815 -.145693250774567 0 .42
7900187638794 -.1374152834011602 0 127 6 80 4 1 1 1 1 4 128 6 81 0 .246005326011
699 .45167613575305 .700427934472251 .879314331934879 1 81 1 78 83 57 21 0 0 74
 47 82 17 24 0 53 20 75 10 25 21 0 0 +15 53 23 0 69 15 0 17 20 0 53 69 24 17 22
 9 0 83 +17 75 0 53 24 69 23 30 70 0 0 +17 25 0 0 0 0 23 24 21 0 75 -17 69 0 53
 75 20 28 83 48 0 0 +17 30 0 0 0 0 28 75 70 0 69 -17 83 0 0 0 0 17 69 48 0 0 -18
 17 25 0 20 23 28 7 ?1 14 255 15 40 84 ?0 0 45 4 5 +0 0 0 0 4 81 1 84 91 85 15 5
9 0 0 0 86 80 255 1 85 0 87 8001 0 0 0 0 3 5 0 0 0 FFFFTFTFFFFFFF2 81 1 59 88 57
 15 0 84 55 0 88 83 255 3 86 .5019608 .6352941 .7058824 80 1 57 89 90 9000 1 1 1
 1 1 1 1 1 0 FFFFTFTFFFFFFF3 84 255 32 88 4aa240e8c419e3f06bf92a52e998e23079 255
 15 90 UGS/ObjectState79 15 87 SDL/TYSA_COLOUR81 1 74 82 57 70 0 0 68 78 91 81 1
 47 84 57 43 0 0 78 63 92 84 32 82 5b85d5fbb5552662574d6298ea11172481 1 63 85 57
 49 0 0 47 58 93 84 32 92 f36421f84bf45ec503ef356ae34b7b5981 1 58 86 57 54 0 0 6
3 55 94 84 32 93 d7504fd0c0b8e7aec8e47dcc8e06463384 32 94 6cd07d5827ddece51c33b1
f90f49cfa081 1 68 81 57 48 0 0 19 74 95 84 32 91 f31147d4125ce6af0ff91ef94310095
881 1 19 80 57 9 0 0 0 68 96 84 32 95 19f79b853c7968e518661d4be071c9cf84 32 96 8
e915361f9682f490873c44d0d0d093717 46 0 45 33 42 34 40 49 0 0 +17 40 0 0 0 0 38 4
6 49 0 42 -84 32 60 1e0ce38e082f65468497be4b42edbae017 36 0 0 0 0 34 33 54 0 46
 -74 4 CI16 index_map_offset0 0 1 dCCZ20 14 4 0 0 59 12 84 2 0 0 0 0 0 0 0 0 0 0
 0 0 0 0 0 0 81 2 12 89 97 1 0 2 0 0 98 99 80 2 97 100 101 8004 0 0 0 0 3 5 0 0
 0 FFTFFFFFFFFFFF2 3 83 1 98 7830.64 84 8 99 Kg/Cu M 79 16 101 SDL/TYSA_DENSITY8
0 1 11 102 103 9000 0 0 0 0 3 5 0 0 0 FFTFFFFFFFFFFF1 82 255 1 13 171 79 24 103
 UG2/BODY_COLOR_ATTRIBUTE1 0 
