**ABCDEFGHIJKLMNOPQRSTUVWXYZabcdefghijklmnopqrstuvwxyz**************************
**PARASOLID !"#$%&'()*+,-./:;<=>?@[\]^_`{|}~0123456789**************************
**PART1;
MC=x64/Windows NT;
MC_MODEL=genuineintel family 6 model 10 stepping 5, intel(r) xeon(r) cpu           w3550  @ 3.07ghz;
MC_ID=133-7320;
OS=windows nt (x64);
OS_RELEASE=6.1 windows 7 ultimate (build 7601) service pack 1;
FRU=mdc_ugii_v7.0_djl_can_vrh;
APPL=unigraphics;
SITE=unknown;
USER=Afonin;
FORMAT=text;
GUISE=transmit;
KEY=ModelGeomComplexFormMultyEld1;
FILE=D:\MyFilesCur\MyPrgs\Ansys\Geom\ModelGeomComplexFormMultyEld1.x_t;
DATE=19-feb-2024;
**PART2;
SCH=SCH_2900123_28101;
USFLD_SIZE=0;
**PART3;
**END_OF_HEADER*****************************************************************
T51 : TRANSMIT FILE created by modeller version 290012323 SCH_2900123_28101_1300
6203 0 10 19 CCCCCCCI4 mesh1006 0 I8 polyline1008 0 CCCCCCCCCCZ1 7 0 0 0 0 0 0 0
 0 0 1e3 1e-8 0 0 0 1 0 1 2 11 255 2 7 0 1 3 0 1 4 0 0 0 12 33 CCCCCCI4 mesh1006
 0 I8 polyline1008 0 CCCCCCCDI5 owner1040 0 CCCCCCI13 boundary_mesh1006 0 I17 bo
undary_polyline1008 0 CCCA16 index_map_offset0 0 1 dA9 index_map82 0 A17 node_id
_index_map82 0 A20 schema_embedding_map82 0 A5 child12 0 A14 lowest_node_id0 0 1
 dZ3 240 5 6 0 0 0 0 0 0 1e3 1e-8 2 7 0 1 0 3 1 8 9 10 11 0 0 12 13 14 0 0 0 0 0
 0 11 4 6 0 1 7 0 1 15 2 0 0 12 7 92 16 17 0 0 0 0 0 0 1e3 1e-8 4 18 3 1 0 3 1 1
9 20 21 22 0 0 23 24 25 0 0 0 0 0 0 11 15 5 0 1 18 0 1 26 4 0 0 12 18 55 27 28 0
 0 0 0 0 0 1e3 1e-8 15 29 7 1 0 3 1 30 31 32 33 0 0 34 35 36 0 0 0 0 0 0 11 26 4
 0 1 29 0 1 37 15 0 0 12 29 55 38 39 0 0 0 0 0 0 1e3 1e-8 26 40 18 1 0 3 1 41 42
 43 44 0 0 45 46 47 0 0 0 0 0 0 11 37 3 0 1 40 0 1 48 26 0 0 12 40 55 49 50 0 0
 0 0 0 0 1e3 1e-8 37 51 29 1 0 3 1 52 53 54 55 0 0 56 57 58 0 0 0 0 0 0 11 48 2
 0 1 51 0 1 59 37 0 0 12 51 55 60 61 0 0 0 0 0 0 1e3 1e-8 48 62 40 1 0 3 1 63 64
 65 66 0 0 67 68 69 0 0 0 0 0 0 11 59 1 0 1 62 0 1 0 48 0 0 12 62 55 70 71 0 0 0
 0 0 0 1e3 1e-8 59 0 51 1 0 3 1 72 73 74 75 0 0 76 77 78 0 0 0 0 0 0 81 255 1 70
 55 79 62 80 0 0 0 81 70 11 CI9 list_type0 0 1 uI10 notransmit0 0 1 lCCCDCCDI12
 finger_index0 0 1 dI12 finger_block1012 0 CZ71 0 4 T62 0 0 5 20 1 82 82 13 255
 72 3 0 62 0 83 0 0 76 83 50 255 73 34 0 83 0 0 0 +.05 .1056 0 0 0 -1 -284217094
30404e-29 -1 0 30 255 74 33 0 84 85 0 0 +.03 .11 0 1 -277555756156289e-30 0 29 2
55 75 29 0 86 87 0 .03 .11 0 19 8 CCCCCCCA5 owner12 0 Z76 1 0 62 0 0 72 V0 16 25
5 77 14 88 ?89 0 90 91 0 0 62 18 255 78 13 0 92 0 93 94 ?62 17 255 92 0 0 0 0 78
 95 96 0 89 -18 93 9 0 97 78 98 99 ?62 29 94 26 0 78 0 99 .03 .1 0 29 99 27 0 93
 94 87 .08 .1 0 29 87 28 0 98 99 75 .08 .11 0 18 98 5 0 100 93 86 87 ?62 17 100
 0 101 97 95 98 102 84 0 103 +18 86 2 0 95 98 0 75 ?62 17 95 0 101 100 89 86 92
 96 0 102 +15 255 101 19 0 95 83 0 17 89 0 101 95 97 78 104 77 0 0 +16 96 17 105
 ?95 84 0 106 0 0 62 17 102 0 0 0 0 86 100 84 0 0 -16 84 6 107 ?100 90 96 74 0 0
 62 81 1 107 49 108 84 0 0 109 105 110 16 90 10 109 ?97 77 84 85 0 0 62 81 1 109
 48 108 90 0 0 88 107 111 17 97 0 101 89 100 93 103 90 0 104 +30 85 32 0 90 91 7
4 0 +.08 .11 0 -1387778780781446e-30 -1 0 30 91 31 0 77 106 85 0 +.08 .1 0 -1 0
 0 30 106 30 0 96 0 91 0 +.03 .1 0 277555756156289e-29 1 0 17 103 0 0 0 0 98 97
 90 0 0 -17 104 0 0 0 0 93 89 77 0 0 -80 255 1 108 112 113 9000 1 1 1 1 1 1 1 1
 0 FFFFTFTFFFFFFF3 81 1 88 47 108 77 0 0 0 109 114 84 255 32 111 349124e12be10de
f66eec38854405b3884 32 114 39fb65826d78d22d7c02722f5051320979 255 15 113 UGS/Obj
ectState81 1 105 50 108 96 0 0 107 115 116 84 32 110 b04aec7577fdbd91c4a951fc8d4
f32be81 1 115 51 108 83 0 117 105 0 118 84 32 116 1fd6ff411544c3e3994eb439e8144a
4414 255 83 20 117 ?0 0 101 72 73 +0 0 0 0 72 81 1 117 54 119 83 115 0 0 0 120 8
4 32 118 ba69d023b45ca9b9c2a9375bc40a766380 1 119 0 121 8001 0 0 0 0 3 5 0 0 0 F
FFFTFTFFFFFFF2 83 255 3 120 .5019608 .6352941 .7058824 79 15 121 SDL/TYSA_COLOUR
74 4 CI16 index_map_offset0 0 1 dCCZ20 82 5 0 0 115 122 80 117 70 0 0 0 0 0 0 0
 0 0 0 0 0 0 0 0 81 2 122 52 123 62 0 80 0 0 124 125 81 1 80 53 126 62 122 70 0
 0 127 80 1 126 128 129 9000 0 0 0 0 3 5 0 0 0 FFTFFFFFFFFFFF1 82 255 1 127 13 7
9 7 129 body_id80 2 123 130 131 8004 0 0 0 0 3 5 0 0 0 FFTFFFFFFFFFFF2 3 83 1 12
4 7830.64 84 8 125 Kg/Cu M 79 16 131 SDL/TYSA_DENSITY80 1 79 132 133 9000 0 0 0
 0 3 5 0 0 0 FFTFFFFFFFFFFF1 82 1 81 171 79 24 133 UG2/BODY_COLOR_ATTRIBUTE81 1
 60 55 79 51 134 0 0 0 135 70 61 0 4 T51 0 0 5 20 1 136 136 13 63 3 0 51 0 137 0
 0 67 137 50 64 34 0 137 0 0 0 +-.05 .1056 0 0 0 -1 -28421709430404e-29 -1 0 30
 65 33 0 138 139 0 0 +-.07 .11 0 1 -277555756156289e-30 0 29 66 29 0 140 141 0 -
.07 .11 0 19 67 1 0 51 0 0 63 V0 16 68 14 142 ?143 0 144 145 0 0 51 18 69 13 0 1
46 0 147 148 ?51 17 146 0 0 0 0 69 149 150 0 143 -18 147 9 0 151 69 152 153 ?51
 29 148 26 0 69 0 153 -.07 .1 0 29 153 27 0 147 148 141 -.02 .1 0 29 141 28 0 15
2 153 66 -.02 .11 0 18 152 5 0 154 147 140 141 ?51 17 154 0 155 151 149 152 156
 138 0 157 +18 140 2 0 149 152 0 66 ?51 17 149 0 155 154 143 140 146 150 0 156 +
15 155 19 0 149 137 0 17 143 0 155 149 151 69 158 68 0 0 +16 150 17 159 ?149 138
 0 160 0 0 51 17 156 0 0 0 0 140 154 138 0 0 -16 138 6 161 ?154 144 150 65 0 0 5
1 81 1 161 49 108 138 0 0 162 159 163 16 144 10 162 ?151 68 138 139 0 0 51 81 1
 162 48 108 144 0 0 142 161 164 17 151 0 155 143 154 147 157 144 0 158 +30 139 3
2 0 144 145 65 0 +-.02 .11 0 -1387778780781446e-30 -1 0 30 145 31 0 68 160 139 0
 +-.02 .1 0 -1 0 0 30 160 30 0 150 0 145 0 +-.07 .1 0 2775557561562895e-30 1 0 1
7 157 0 0 0 0 152 151 144 0 0 -17 158 0 0 0 0 147 143 68 0 0 -81 1 142 47 108 68
 0 0 0 162 165 84 32 164 8e385a1cfd922cba829722e41ba27f9984 32 165 6c87e3129bd5c
4190edeea1a53097cc181 1 159 50 108 150 0 0 161 166 167 84 32 163 aa85cdef16d70e7
341f9316308b7fe8381 1 166 51 108 137 0 168 159 0 169 84 32 167 9fe63e8429699e1f7
4d6edeb7e9a296014 137 20 168 ?0 0 155 63 64 +0 0 0 0 63 81 1 168 54 119 137 166
 0 0 0 170 84 32 169 be512c28bd97b49366cade78df28df7183 3 170 .5019608 .6352941
 .7058824 74 20 136 5 0 0 166 171 134 168 60 0 0 0 0 0 0 0 0 0 0 0 0 0 0 0 81 2
 171 52 123 51 0 134 0 0 172 173 81 1 134 53 126 51 171 60 0 0 174 82 1 174 12 8
3 1 172 7830.64 84 8 173 Kg/Cu M 82 1 135 171 81 1 49 55 79 40 175 0 0 0 176 70
 50 0 4 T40 0 0 5 20 1 177 177 13 52 3 0 40 0 178 0 0 56 178 50 53 34 0 178 0 0
 0 +-.1156 .005 0 0 0 1 1 -56843418860808e-29 0 30 54 33 0 179 180 0 0 +-.12 .02
5 0 -832667268468867e-30 -1 0 29 55 29 0 181 182 0 -.12 .025 0 19 56 1 0 40 0 0
 52 V0 16 57 14 183 ?184 0 185 186 0 0 40 18 58 13 0 187 0 188 189 ?40 17 187 0
 0 0 0 58 190 191 0 184 -18 188 9 0 192 58 193 194 ?40 29 189 26 0 58 0 194 -.11
 .025 0 29 194 27 0 188 189 182 -.11 -.025 0 29 182 28 0 193 194 55 -.12 -.025 0
 18 193 5 0 195 188 181 182 ?40 17 195 0 196 192 190 193 197 179 0 198 +18 181 2
 0 190 193 0 55 ?40 17 190 0 196 195 184 181 187 191 0 197 +15 196 19 0 190 178
 0 17 184 0 196 190 192 58 199 57 0 0 +16 191 17 200 ?190 179 0 201 0 0 40 17 19
7 0 0 0 0 181 195 179 0 0 -16 179 6 202 ?195 185 191 54 0 0 40 81 1 202 49 108 1
79 0 0 203 200 204 16 185 10 203 ?192 57 179 180 0 0 40 81 1 203 48 108 185 0 0
 183 202 205 17 192 0 196 184 195 188 198 185 0 199 +30 180 32 0 185 186 54 0 +-
.12 -.025 0 1 0 0 30 186 31 0 57 201 180 0 +-.11 -.025 0 555111512312579e-30 1 0
 30 201 30 0 191 0 186 0 +-.11 .025 0 -1 416333634234434e-29 0 17 198 0 0 0 0 19
3 192 185 0 0 -17 199 0 0 0 0 188 184 57 0 0 -81 1 183 47 108 57 0 0 0 203 206 8
4 32 205 5618e1a215b33e161be05d1e86adde9884 32 206 b23e25c95390627c9095ea848de3f
d7d81 1 200 50 108 191 0 0 202 207 208 84 32 204 0dc55ec01ea886eefa15bd3f7a3a3d0
481 1 207 51 108 178 0 209 200 0 210 84 32 208 0179a574b54a6ca5cbbff0718b4c0cb81
4 178 20 209 ?0 0 196 52 53 +0 0 0 0 52 81 1 209 54 119 178 207 0 0 0 211 84 32
 210 96e33f4815808b805baf8c070f029de183 3 211 .5019608 .6352941 .7058824 74 20 1
77 5 0 0 207 212 175 209 49 0 0 0 0 0 0 0 0 0 0 0 0 0 0 0 81 2 212 52 123 40 0 1
75 0 0 213 214 81 1 175 53 126 40 212 49 0 0 215 82 1 215 11 83 1 213 7830.64 84
 8 214 Kg/Cu M 82 1 176 171 81 1 38 55 79 29 216 0 0 0 217 70 39 0 4 T29 0 0 5 2
0 1 218 218 13 41 3 0 29 0 219 0 0 45 219 50 42 34 0 219 0 0 0 +-.05 -.1044 0 0
 0 -1 0 -1 0 30 43 33 0 220 221 0 0 +-.07 -.1 0 1 0 0 29 44 29 0 222 223 0 -.07
 -.1 0 19 45 1 0 29 0 0 41 V0 16 46 14 224 ?225 0 226 227 0 0 29 18 47 13 0 228
 0 229 230 ?29 17 228 0 0 0 0 47 231 232 0 225 -18 229 9 0 233 47 234 235 ?29 29
 230 26 0 47 0 235 -.07 -.11 0 29 235 27 0 229 230 223 -.02 -.11 0 29 223 28 0 2
34 235 44 -.02 -.1 0 18 234 5 0 236 229 222 223 ?29 17 236 0 237 233 231 234 238
 220 0 239 +18 222 2 0 231 234 0 44 ?29 17 231 0 237 236 225 222 228 232 0 238 +
15 237 19 0 231 219 0 17 225 0 237 231 233 47 240 46 0 0 +16 232 17 241 ?231 220
 0 242 0 0 29 17 238 0 0 0 0 222 236 220 0 0 -16 220 6 243 ?236 226 232 43 0 0 2
9 81 1 243 49 108 220 0 0 244 241 245 16 226 10 244 ?233 46 220 221 0 0 29 81 1
 244 48 108 226 0 0 224 243 246 17 233 0 237 225 236 229 239 226 0 240 +30 221 3
2 0 226 227 43 0 +-.02 -.1 0 -3469446951953615e-31 -1 0 30 227 31 0 46 242 221 0
 +-.02 -.11 0 -1 0 0 30 242 30 0 232 0 227 0 +-.07 -.11 0 0 1 0 17 239 0 0 0 0 2
34 233 226 0 0 -17 240 0 0 0 0 229 225 46 0 0 -81 1 224 47 108 46 0 0 0 244 247
 84 32 246 16690f68e64920d3a4799e5fd4daac0f84 32 247 02b4155cb44d11696559c588de1
b9a9281 1 241 50 108 232 0 0 243 248 249 84 32 245 95ace1f2da1d5d798899f8277b36a
89c81 1 248 51 108 219 0 250 241 0 251 84 32 249 9b74fcd0d18f098bea6a718fea4edc4
214 219 20 250 ?0 0 237 41 42 +0 0 0 0 41 81 1 250 54 119 219 248 0 0 0 252 84 3
2 251 fef8e03afa014cb539215fc8b9cf3d3683 3 252 .5019608 .6352941 .7058824 74 20
 218 5 0 0 248 253 216 250 38 0 0 0 0 0 0 0 0 0 0 0 0 0 0 0 81 2 253 52 123 29 0
 216 0 0 254 255 81 1 216 53 126 29 253 38 0 0 256 82 1 256 10 83 1 254 7830.64
 84 8 255 Kg/Cu M 82 1 217 171 81 1 27 55 79 18 257 0 0 0 258 70 28 0 4 T18 0 0
 5 20 1 259 259 13 30 3 0 18 0 260 0 0 34 260 50 31 34 0 260 0 0 0 +.05 -.1044 0
 0 0 -1 0 -1 0 30 32 33 0 261 262 0 0 +.03 -.1 0 1 0 0 29 33 29 0 263 264 0 .03
 -.1 0 19 34 1 0 18 0 0 30 V0 16 35 14 265 ?266 0 267 268 0 0 18 18 36 13 0 269
 0 270 271 ?18 17 269 0 0 0 0 36 272 273 0 266 -18 270 9 0 274 36 275 276 ?18 29
 271 26 0 36 0 276 .03 -.11 0 29 276 27 0 270 271 264 .08 -.11 0 29 264 28 0 275
 276 33 .08 -.1 0 18 275 5 0 277 270 263 264 ?18 17 277 0 278 274 272 275 279 26
1 0 280 +18 263 2 0 272 275 0 33 ?18 17 272 0 278 277 266 263 269 273 0 279 +15
 278 19 0 272 260 0 17 266 0 278 272 274 36 281 35 0 0 +16 273 17 282 ?272 261 0
 283 0 0 18 17 279 0 0 0 0 263 277 261 0 0 -16 261 6 284 ?277 267 273 32 0 0 18
 81 1 284 49 108 261 0 0 285 282 286 16 267 10 285 ?274 35 261 262 0 0 18 81 1 2
85 48 108 267 0 0 265 284 287 17 274 0 278 266 277 270 280 267 0 281 +30 262 32
 0 267 268 32 0 +.08 -.1 0 -1387778780781446e-30 -1 0 30 268 31 0 35 283 262 0 +
.08 -.11 0 -1 0 0 30 283 30 0 273 0 268 0 +.03 -.11 0 0 1 0 17 280 0 0 0 0 275 2
74 267 0 0 -17 281 0 0 0 0 270 266 35 0 0 -81 1 265 47 108 35 0 0 0 285 288 84 3
2 287 b1d5b151831f60495a1c9e9be002475484 32 288 4bf3fa86cf199039e9d942e5d6a3b0bc
81 1 282 50 108 273 0 0 284 289 290 84 32 286 9f7163189dc1edc1a141838dd74d73ac81
 1 289 51 108 260 0 291 282 0 292 84 32 290 4899c1aae25a0afd44e9a9ca760ee64b14 2
60 20 291 ?0 0 278 30 31 +0 0 0 0 30 81 1 291 54 119 260 289 0 0 0 293 84 32 292
 ac304771edcae1fec20f1e8d51632f6583 3 293 .5019608 .6352941 .7058824 74 20 259 5
 0 0 289 294 257 291 27 0 0 0 0 0 0 0 0 0 0 0 0 0 0 0 81 2 294 52 123 18 0 257 0
 0 295 296 81 1 257 53 126 18 294 27 0 0 297 82 1 297 9 83 1 295 7830.64 84 8 29
6 Kg/Cu M 82 1 258 171 81 1 16 92 79 7 298 0 0 0 299 70 17 0 4 T7 0 0 5 20 1 300
 300 13 19 3 0 7 0 301 0 0 23 301 50 20 63 0 301 0 0 0 -.1 -333955085807247e-30
 0 0 0 1 -1 28421709430404e-29 0 30 21 62 0 302 303 0 0 --.5 .4 0 1 -46259292692
7149e-30 0 29 22 54 0 304 305 0 -.5 .4 0 19 23 1 0 7 0 0 19 V0 16 24 37 306 ?307
 0 308 309 0 0 7 18 25 33 0 310 0 311 312 ?7 17 310 0 0 0 0 25 313 308 0 307 -18
 311 29 0 314 25 315 316 ?7 29 312 47 0 25 0 316 746069872548105e-31 .15 0 29 31
6 48 0 311 312 317 .4490893303659635 .01820813702345055 0 29 317 49 0 318 316 31
9 .4490893303659635 -.0182081370234506 0 18 318 22 0 320 315 304 317 ?7 29 319 5
0 0 315 317 321 85265128291212e-30 -.15 0 18 315 25 0 322 311 318 319 ?7 29 321
 51 0 323 319 324 -.5 -.4 0 18 323 5 0 325 326 327 321 ?7 29 324 52 0 327 321 30
5 .7 -.4 0 18 327 2 0 328 323 0 324 ?7 29 305 53 0 326 324 22 .7 .4 0 18 326 9 0
 329 304 323 305 ?7 17 329 0 0 0 0 326 330 302 0 331 -18 304 13 0 330 318 326 22
 ?7 17 330 0 332 333 331 304 329 302 0 334 +15 332 19 0 333 301 0 17 333 0 332 3
35 330 323 334 336 0 0 +17 331 0 332 330 335 326 328 337 0 0 +16 302 14 338 ?330
 337 336 21 0 0 7 17 334 0 0 0 0 304 333 336 0 0 -16 336 17 339 ?333 302 0 340 0
 0 7 81 1 339 87 108 336 0 0 338 341 342 30 340 59 0 336 343 344 0 --.5 -.4 0 20
8166817117217e-30 1 0 134 255 343 58 0 345 346 340 0 +347 348 30 344 60 0 349 34
0 303 0 -.7 -.4 0 -1 693889390390723e-30 0 16 349 6 350 ?335 345 337 344 0 0 7 3
0 303 61 0 337 344 21 0 -.7 .4 0 -4163336342344335e-31 -1 0 16 337 10 351 ?331 3
49 302 303 0 0 7 81 1 351 85 108 337 0 0 350 338 352 81 1 350 84 108 349 0 0 353
 351 354 81 1 338 86 108 302 0 0 351 339 355 84 32 352 d7504fd0c0b8e7aec8e47dcc8
e06463384 32 355 6cd07d5827ddece51c33b1f90f49cfa081 1 353 83 108 345 0 0 356 350
 357 84 32 354 f36421f84bf45ec503ef356ae34b7b5916 345 26 353 ?322 358 349 343 0
 0 7 81 1 356 82 108 358 0 0 359 353 360 84 32 357 255c4c0befdeaebbb3db7e9dc960e
97c16 358 30 356 ?361 308 345 346 0 0 7 81 1 359 81 108 308 0 0 306 356 362 84 3
2 360 222632f26c267cce97713ce3e3b2fadf16 308 34 359 ?313 24 358 363 0 0 7 81 1 3
06 80 108 24 0 0 0 359 364 84 32 362 cefd7b9194ce595e9739517c8db2a25084 32 364 0
85b967f68d282a235d8934019442f1817 313 0 365 361 307 311 310 308 0 0 +134 363 56
 0 308 309 346 0 +366 367 31 255 309 55 0 24 0 363 0 +0 0 0 0 0 -1 1 12246467991
47352e-31 0 .15 31 346 57 0 358 363 343 0 +.267515836355551 0 0 0 0 -1 1 1224646
799147352e-31 0 .182484163644449 136 255 366 3 9 3 7 6 FFF1 368 369 370 135 255
 367 1 0 45 255 27 368 746069872548105e-31 .15 0 .0309892275058149 .151961667338
6265 0 .0901495208385023 .1510912703724385 0 .2098888687498805 .1349019527687422
 0 .3205265736991145 .079839129562832 0 .40843582702184 .0474215988975795 0 .445
8327201361265 .02848672297354995 0 .4485430714893465 .0207386571824725 0 .449089
3303659635 .0182081370234506 0 127 255 7 369 4 1 1 1 1 1 4 128 255 7 370 0 .1936
295930205485 .3728609241735995 .754991271668248 .948802470729466 .98466780379123
5 1 15 365 38 0 307 301 332 17 361 0 365 322 313 318 314 358 0 0 +17 307 0 365 3
13 322 25 371 24 0 0 +17 322 0 365 307 361 315 320 345 0 371 +17 371 0 0 0 0 315
 307 24 0 0 -17 320 0 0 0 0 318 322 345 0 361 -17 314 0 0 0 0 311 361 358 0 313
 -14 301 20 372 ?0 0 365 19 20 -0 0 0 0 19 81 1 372 91 119 301 341 0 0 0 373 81
 1 341 88 108 301 0 372 339 0 374 83 3 373 .5019608 .6352941 .7058824 84 32 374
 60959279cf390b067331638274ee662817 335 0 332 331 333 327 325 349 0 0 +17 325 0
 0 0 0 323 335 349 0 333 -136 347 3 9 3 7 6 FFF1 375 376 377 135 348 1 0 45 27 3
75 .4490893303659635 -.0182081370234506 0 .448543071489346 -.02073865718247245 0
 .445829835282382 -.02848537637915305 0 .401526362237066 -.0510077711773447 0 .3
263723801402585 -.0744279644975264 0 .2079888469420345 -.0899185814847486 0 .109
323105744594 -.1510420817562845 0 .0339287412776686 -.1523359665031935 0 7815970
0933611e-30 -.15 0 127 7 376 4 1 1 1 1 1 4 128 7 377 0 .01540299564251815 .05143
39439388934 .292210615338418 .529257686297364 .791844311162124 1 84 32 342 1e0ce
38e082f65468497be4b42edbae017 328 0 0 0 0 327 331 337 0 335 -74 20 300 5 0 0 341
 378 298 372 16 0 0 0 0 0 0 0 0 0 0 0 0 0 0 0 81 2 378 89 123 7 0 298 0 0 379 38
0 81 1 298 90 126 7 378 16 0 0 381 82 1 381 8 83 1 379 7830.64 84 8 380 Kg/Cu M
 82 1 299 171 81 1 5 240 79 3 382 0 0 0 383 70 6 0 4 T3 0 0 5 20 1 384 384 13 8
 3 0 3 0 385 0 0 12 385 50 9 179 0 385 0 0 0 -.1404565838066842 .004102818867525
515 0 0 0 1 -.996805184282853 .0798713001448379 0 30 10 178 0 386 387 0 0 +-.02
 .11 0 -1387778780781446e-30 -1 0 29 11 154 0 388 389 0 -.02 .11 0 19 12 1 0 3 0
 0 8 V0 16 13 113 390 ?391 0 392 393 0 0 3 18 14 109 0 394 0 395 396 ?3 17 394 0
 0 0 0 14 397 392 0 391 -18 395 105 0 397 14 398 399 ?3 29 396 134 0 14 399 400
 -.11 .025 0 29 399 133 0 395 401 396 -.11 -.025 0 29 400 135 0 402 396 403 -.07
 -.11 0 18 402 79 0 404 405 406 400 ?3 29 403 136 0 405 400 407 -.02 -.11 0 18 4
05 82 0 408 409 402 403 ?3 29 407 137 0 409 403 410 -.02 -.1 0 18 409 86 0 411 4
12 405 407 ?3 29 410 138 0 412 407 413 -.07 -.1 0 18 412 90 0 414 415 409 410 ?3
 29 413 139 0 416 410 417 .03 .11 0 18 416 22 0 418 419 420 413 ?3 29 417 140 0
 421 413 422 .03 .1 0 18 421 29 0 423 424 419 417 ?3 29 422 141 0 424 417 425 .0
8 .1 0 18 424 33 0 426 427 421 422 ?3 29 425 142 0 419 422 428 .08 .11 0 18 419
 25 0 429 421 416 425 ?3 29 428 143 0 430 425 431 .4490893303659635 .01820813702
34506 0 18 430 5 0 432 433 434 428 ?3 29 431 144 0 434 428 435 .4490893303659635
 -.0182081370234506 0 18 434 2 0 436 430 0 431 ?3 29 435 145 0 433 431 437 78159
700933611e-30 -.15 0 18 433 9 0 438 420 430 435 ?3 29 437 146 0 420 435 439 7460
69872548105e-31 .15 0 18 420 13 0 440 416 433 437 ?3 29 439 147 0 427 437 441 .0
3 -.11 0 18 427 41 0 442 443 424 439 ?3 29 441 148 0 443 439 444 .08 -.11 0 18 4
43 44 0 445 446 427 441 ?3 29 444 149 0 446 441 447 .08 -.1 0 18 446 48 0 448 44
9 443 444 ?3 29 447 150 0 449 444 450 .03 -.1 0 18 449 52 0 451 452 446 447 ?3 2
9 450 151 0 452 447 453 -.07 .11 0 18 452 60 0 454 388 449 450 ?3 29 453 152 0 4
55 450 389 -.07 .1 0 18 455 67 0 456 406 388 453 ?3 29 389 153 0 406 453 11 -.02
 .1 0 18 406 71 0 457 402 455 389 ?3 17 457 0 0 0 0 406 456 458 0 459 -17 456 0
 460 454 459 455 457 458 0 461 +16 458 72 462 ?456 386 463 387 0 0 3 17 459 0 46
0 456 464 406 465 386 0 0 +15 460 61 0 464 385 0 17 464 0 460 459 454 388 466 46
7 0 465 +17 465 0 0 0 0 388 459 386 0 0 -16 386 75 468 ?459 469 458 10 0 0 3 81
 1 468 220 108 386 0 0 470 462 471 16 469 83 472 ?404 473 386 474 0 0 3 81 1 472
 217 108 469 0 0 475 476 477 17 404 0 478 479 408 402 480 469 0 481 +16 473 87 4
75 ?408 482 469 483 0 0 3 30 474 160 0 469 484 483 0 --.07 -.11 0 1 0 0 30 484 1
59 0 485 486 474 0 --.07 -.1 0 0 -1 0 30 483 161 0 473 474 487 0 --.02 -.11 0 34
69446951953615e-31 1 0 30 487 162 0 482 483 488 0 --.02 -.1 0 -1 0 0 16 482 91 4
70 ?411 485 473 487 0 0 3 30 488 163 0 489 487 490 0 +.03 .11 0 1 -2775557561562
89e-30 0 16 489 26 491 ?429 492 493 488 0 0 3 30 490 164 0 492 488 494 0 +.03 .1
 0 277555756156289e-29 1 0 16 492 30 495 ?418 496 489 490 0 0 3 30 494 165 0 496
 490 497 0 +.08 .1 0 -1 0 0 16 496 34 498 ?423 499 492 494 0 0 3 30 497 166 0 49
9 494 500 0 +.08 .11 0 -1387778780781446e-30 -1 0 16 499 37 501 ?502 503 496 497
 0 0 3 134 500 167 0 504 497 505 0 +506 507 16 504 17 508 ?440 509 0 500 0 0 3 3
1 505 168 0 493 500 510 0 +.267515836355551 0 0 0 0 1 1 0 0 .182484163644449 136
 506 3 9 3 7 6 FFF1 511 512 513 135 507 1 0 45 27 511 .4490893303659635 .0182081
370234506 0 .4485430714893465 .0207386571824725 0 .4458327201361265 .02848672297
354995 0 .40843582702184 .0474215988975795 0 .3205265736991145 .079839129562832
 0 .2098888687498805 .1349019527687422 0 .0901495208385023 .1510912703724385 0 .
0309892275058149 .1519616673386265 0 746069872548105e-31 .15 0 127 7 512 4 1 1 1
 1 1 4 128 7 513 0 .01533219620876505 .0511975292705343 .245008728331752 .627139
075826401 .806370406979451 1 16 493 6 514 ?515 489 516 505 0 0 3 134 510 169 0 5
16 505 517 0 +518 519 16 516 10 520 ?436 493 509 510 0 0 3 31 517 170 0 509 510
 521 0 +0 0 0 0 0 1 1 0 0 .15 136 518 3 9 3 7 6 FFF1 522 523 524 135 519 1 0 45
 27 522 78159700933611e-30 -.15 0 .0339287412776686 -.1523359665031935 0 .109323
105744594 -.1510420817562845 0 .2079888469420345 -.0899185814847486 0 .326372380
1402585 -.0744279644975264 0 .401526362237066 -.0510077711773447 0 .445829835282
382 -.02848537637915305 0 .448543071489346 -.02073865718247245 0 .44908933036596
35 -.0182081370234506 0 127 7 523 4 1 1 1 1 1 4 128 7 524 0 .208155688837876 .47
0742313702636 .707789384661582 .948566056061107 .984597004357482 1 16 509 14 525
 ?438 516 504 517 0 0 3 30 521 171 0 526 517 527 0 -.03 -.1 0 0 -1 0 16 526 56 5
28 ?529 467 530 521 0 0 3 30 527 172 0 503 521 531 0 -.03 -.11 0 1 0 0 16 503 45
 532 ?442 533 499 527 0 0 3 30 531 173 0 533 527 534 0 -.08 -.11 0 1387778780781
446e-30 1 0 16 533 49 535 ?445 530 503 531 0 0 3 30 534 174 0 530 531 536 0 -.08
 -.1 0 -1 0 0 16 530 53 537 ?448 526 533 534 0 0 3 30 536 175 0 467 534 538 0 +-
.07 .11 0 1 -277555756156289e-30 0 16 467 64 539 ?464 463 526 536 0 0 3 30 538 1
76 0 463 536 387 0 +-.07 .1 0 2775557561562895e-30 1 0 16 463 68 540 ?454 458 46
7 538 0 0 3 30 387 177 0 458 538 10 0 +-.02 .1 0 -1 0 0 81 1 540 222 108 463 0 0
 462 539 541 17 454 0 460 464 456 452 461 463 0 466 +17 461 0 0 0 0 455 454 463
 0 0 -17 466 0 0 0 0 452 464 467 0 0 -81 1 462 221 108 458 0 0 468 540 542 81 1
 539 223 108 467 0 0 540 535 543 84 32 541 9fe63e8429699e1f74d6edeb7e9a296081 1
 535 224 108 533 0 0 539 532 544 84 32 543 aa85cdef16d70e7341f9316308b7fe8381 1
 532 225 108 503 0 0 535 528 545 84 32 544 79ad2e116e5ffb79e1daf99f6b57e66e81 1
 528 226 108 526 0 0 532 537 546 84 32 545 7e422d5faf5a5ae6e22ec966edaa2c8a81 1
 537 227 108 530 0 0 528 501 547 84 32 546 2037da7b4da78d287adfbb2ac65e750281 1
 501 228 108 499 0 0 537 498 548 84 32 547 5727ab165d2f48064134d8a2881cfe2e81 1
 498 229 108 496 0 0 501 495 549 84 32 548 349124e12be10def66eec38854405b3881 1
 495 230 108 492 0 0 498 491 550 84 32 549 39fb65826d78d22d7c02722f5051320981 1
 491 231 108 489 0 0 495 514 551 84 32 550 1fd6ff411544c3e3994eb439e8144a4481 1
 514 232 108 493 0 0 491 520 552 84 32 551 b04aec7577fdbd91c4a951fc8d4f32be81 1
 520 233 108 516 0 0 514 525 553 84 32 552 31d525ec4f061bdaeafe99b106d6a11781 1
 525 234 108 509 0 0 520 508 554 84 32 553 29b09b96fb41a1f2850af0df517a736781 1
 508 235 108 504 0 0 525 555 556 84 32 554 e38b5275639810b9a06a39205e563a6b81 1
 555 236 108 385 0 557 508 0 558 84 32 556 648ef2db1e5fc896a1d88aed6f8590c214 38
5 78 557 ?0 0 559 8 9 -0 0 0 0 8 81 1 557 239 119 385 555 0 0 0 560 84 32 558 7a
464be141dbb7c48116fba4f474864183 3 560 .5019608 .6352941 .7058824 15 559 114 0 3
91 385 478 17 391 0 559 397 561 14 562 13 0 0 +15 478 95 0 479 385 563 17 479 0
 478 411 404 412 481 485 0 0 +15 563 23 0 429 385 564 17 429 0 563 502 418 419 5
65 489 0 566 +15 564 19 0 440 385 567 17 440 0 564 438 515 420 432 504 0 568 +15
 567 57 0 529 385 460 17 529 0 567 448 442 449 569 526 0 0 +17 448 0 567 445 529
 446 451 530 0 570 +17 442 0 567 529 445 427 571 503 0 569 +17 569 0 0 0 0 427 5
29 526 0 0 -17 445 0 567 442 448 443 570 533 0 571 +17 571 0 0 0 0 443 442 503 0
 0 -17 570 0 0 0 0 446 445 533 0 0 -17 451 0 0 0 0 449 448 530 0 529 -17 438 0 5
64 436 440 433 568 509 0 572 +17 515 0 564 440 436 430 573 493 0 0 +17 432 0 0 0
 0 430 440 504 0 515 -17 568 0 0 0 0 420 438 509 0 0 -17 436 0 564 515 438 434 5
72 516 0 573 +17 573 0 0 0 0 434 515 493 0 0 -17 572 0 0 0 0 433 436 516 0 0 -17
 502 0 563 423 429 424 566 499 0 0 +17 418 0 563 429 423 416 574 492 0 565 +17 5
65 0 0 0 0 416 429 489 0 0 -17 566 0 0 0 0 419 502 499 0 0 -17 423 0 563 418 502
 421 426 496 0 574 +17 574 0 0 0 0 421 418 492 0 0 -17 426 0 0 0 0 424 423 496 0
 502 -17 411 0 478 408 479 409 414 482 0 575 +17 481 0 0 0 0 402 479 485 0 0 -16
 485 94 476 ?479 576 482 484 0 0 3 81 1 476 218 108 485 0 0 472 470 577 16 576 1
02 578 ?561 579 485 580 0 0 3 81 1 578 213 108 576 0 0 581 390 582 17 561 0 559
 391 583 415 584 576 0 562 +16 579 106 581 ?583 392 576 585 0 0 3 30 580 156 0 5
76 393 585 0 --.12 .025 0 -832667268468867e-30 -1 0 30 393 155 0 13 0 580 0 --.1
1 .025 0 -1 416333634234434e-29 0 30 585 157 0 579 580 486 0 --.12 -.025 0 1 0 0
 30 486 158 0 392 585 484 0 --.11 -.025 0 555111512312579e-30 1 0 16 392 110 586
 ?397 13 579 486 0 0 3 81 1 586 215 108 392 0 0 390 475 587 17 397 0 559 583 391
 395 394 392 0 588 +17 583 0 559 561 397 398 588 579 0 584 +17 588 0 0 0 0 395 5
83 579 0 0 -18 398 101 0 583 395 415 401 ?3 17 584 0 0 0 0 398 561 576 0 0 -18 4
15 98 0 561 398 412 589 ?3 29 401 132 0 398 589 399 -.12 -.025 0 29 589 131 0 41
5 0 401 -.12 .025 0 81 1 390 214 108 13 0 0 578 586 590 81 1 475 216 108 473 0 0
 586 472 591 84 32 587 5fd79d2f4f3425f1644d5c615b8f04eb84 32 591 d6764b5af043f42
061114bc1f943949584 32 590 79f3595212e3b4259cd56d655be0425d81 1 581 212 108 579
 0 0 0 578 592 84 32 592 56592179f4d1696a397d3ada677aa1a117 562 0 0 0 0 415 391
 13 0 0 -84 32 582 30a1f7bb290fb15cc289121a67b056c581 1 470 219 108 482 0 0 476
 468 593 84 32 577 74f08c8eff8ece52ba5a217b913dd9e684 32 593 4cddd07a385a18b1cb1
ac7dc0d02c8c917 408 0 478 404 411 405 575 473 0 480 +17 414 0 0 0 0 412 411 482
 0 479 -17 575 0 0 0 0 409 408 473 0 0 -17 480 0 0 0 0 405 404 469 0 0 -84 32 54
2 6c87e3129bd5c4190edeea1a53097cc184 32 477 7332582eac7319872de861810b8c673d84 3
2 471 8e385a1cfd922cba829722e41ba27f9918 388 63 0 464 455 452 11 ?3 74 20 384 5
 0 0 555 594 382 557 5 0 0 0 0 0 0 0 0 0 0 0 0 0 0 0 81 2 594 237 123 3 0 382 0
 0 595 596 81 1 382 238 126 3 594 5 0 0 597 82 1 597 14 83 1 595 7830.64 84 8 59
6 Kg/Cu M 82 1 383 171 1 0 
